<svg width="1920" height="1080" viewBox="0 0 1920 1080" fill="none" xmlns="http://www.w3.org/2000/svg">
<rect width="1920" height="1080" fill="white"/>
<rect x="1576" y="184" width="344" height="114" fill="#FFEA00"/>
<path d="M1684.66 235H1680.26C1680 233.733 1679.55 232.621 1678.89 231.662C1678.25 230.703 1677.47 229.898 1676.55 229.247C1675.64 228.584 1674.63 228.087 1673.51 227.756C1672.4 227.424 1671.24 227.259 1670.03 227.259C1667.83 227.259 1665.84 227.815 1664.05 228.928C1662.27 230.04 1660.86 231.68 1659.81 233.846C1658.77 236.012 1658.24 238.67 1658.24 241.818C1658.24 244.967 1658.77 247.624 1659.81 249.79C1660.86 251.957 1662.27 253.596 1664.05 254.709C1665.84 255.821 1667.83 256.378 1670.03 256.378C1671.24 256.378 1672.4 256.212 1673.51 255.881C1674.63 255.549 1675.64 255.058 1676.55 254.407C1677.47 253.744 1678.25 252.933 1678.89 251.974C1679.55 251.004 1680 249.891 1680.26 248.636H1684.66C1684.33 250.495 1683.73 252.158 1682.85 253.626C1681.98 255.094 1680.89 256.342 1679.59 257.372C1678.28 258.39 1676.82 259.165 1675.2 259.698C1673.59 260.231 1671.87 260.497 1670.03 260.497C1666.93 260.497 1664.17 259.74 1661.76 258.224C1659.35 256.709 1657.45 254.555 1656.06 251.761C1654.68 248.968 1653.98 245.653 1653.98 241.818C1653.98 237.983 1654.68 234.669 1656.06 231.875C1657.45 229.081 1659.35 226.927 1661.76 225.412C1664.17 223.897 1666.93 223.139 1670.03 223.139C1671.87 223.139 1673.59 223.406 1675.2 223.938C1676.82 224.471 1678.28 225.252 1679.59 226.282C1680.89 227.3 1681.98 228.543 1682.85 230.011C1683.73 231.467 1684.33 233.13 1684.66 235ZM1715.79 231.52H1719.48C1719.48 233.319 1719.24 234.828 1718.77 236.048C1718.3 237.255 1717.47 238.166 1716.28 238.782C1715.1 239.386 1713.44 239.688 1711.31 239.688V236.776C1712.78 236.776 1713.82 236.598 1714.44 236.243C1715.06 235.876 1715.44 235.308 1715.57 234.538C1715.72 233.757 1715.79 232.751 1715.79 231.52ZM1708.4 248.849V232.727H1712.59V260H1708.4V255.384H1708.12C1707.48 256.768 1706.48 257.946 1705.13 258.917C1703.78 259.876 1702.08 260.355 1700.02 260.355C1698.31 260.355 1696.8 259.982 1695.47 259.237C1694.15 258.479 1693.11 257.343 1692.35 255.827C1691.59 254.3 1691.21 252.377 1691.21 250.057V232.727H1695.4V249.773C1695.4 251.761 1695.96 253.348 1697.07 254.531C1698.2 255.715 1699.63 256.307 1701.37 256.307C1702.41 256.307 1703.47 256.04 1704.55 255.508C1705.64 254.975 1706.55 254.158 1707.28 253.058C1708.03 251.957 1708.4 250.554 1708.4 248.849ZM1703.78 229.034H1700.3V225.199C1701.55 225.128 1702.42 224.956 1702.93 224.684C1703.45 224.412 1703.71 223.991 1703.71 223.423C1703.71 222.784 1703.34 222.317 1702.59 222.021C1701.85 221.725 1700.94 221.577 1699.88 221.577L1700.02 218.878C1702.47 218.878 1704.32 219.304 1705.58 220.156C1706.84 221.009 1707.48 222.145 1707.48 223.565C1707.48 224.773 1707.09 225.655 1706.32 226.211C1705.55 226.767 1704.71 227.116 1703.78 227.259V229.034ZM1730.34 260.639C1728.61 260.639 1727.04 260.314 1725.64 259.663C1724.23 259 1723.11 258.047 1722.28 256.804C1721.45 255.549 1721.04 254.034 1721.04 252.259C1721.04 250.696 1721.35 249.429 1721.96 248.459C1722.58 247.476 1723.4 246.707 1724.43 246.151C1725.46 245.594 1726.59 245.18 1727.84 244.908C1729.09 244.624 1730.35 244.399 1731.62 244.233C1733.28 244.02 1734.62 243.86 1735.65 243.754C1736.69 243.635 1737.45 243.44 1737.92 243.168C1738.41 242.895 1738.65 242.422 1738.65 241.747V241.605C1738.65 239.853 1738.17 238.492 1737.21 237.521C1736.27 236.551 1734.83 236.065 1732.9 236.065C1730.9 236.065 1729.33 236.503 1728.19 237.379C1727.06 238.255 1726.26 239.19 1725.8 240.185L1721.82 238.764C1722.53 237.107 1723.48 235.817 1724.66 234.893C1725.85 233.958 1727.16 233.307 1728.57 232.94C1729.99 232.562 1731.38 232.372 1732.76 232.372C1733.63 232.372 1734.64 232.479 1735.77 232.692C1736.92 232.893 1738.03 233.313 1739.09 233.952C1740.17 234.592 1741.07 235.556 1741.78 236.847C1742.49 238.137 1742.84 239.865 1742.84 242.031V260H1738.65V256.307H1738.44C1738.15 256.899 1737.68 257.532 1737.02 258.207C1736.35 258.881 1735.47 259.455 1734.37 259.929C1733.27 260.402 1731.93 260.639 1730.34 260.639ZM1730.98 256.875C1732.64 256.875 1734.03 256.549 1735.17 255.898C1736.32 255.247 1737.18 254.407 1737.76 253.377C1738.35 252.347 1738.65 251.264 1738.65 250.128V246.293C1738.47 246.506 1738.08 246.701 1737.48 246.879C1736.89 247.044 1736.2 247.192 1735.42 247.322C1734.65 247.441 1733.9 247.547 1733.16 247.642C1732.44 247.725 1731.86 247.796 1731.41 247.855C1730.32 247.997 1729.3 248.228 1728.35 248.548C1727.42 248.855 1726.66 249.323 1726.08 249.95C1725.51 250.566 1725.23 251.406 1725.23 252.472C1725.23 253.928 1725.77 255.028 1726.84 255.774C1727.93 256.508 1729.31 256.875 1730.98 256.875ZM1786.85 232.727L1776.77 260H1772.51L1762.42 232.727H1766.97L1774.5 254.46H1774.78L1782.31 232.727H1786.85ZM1799.58 260.639C1797.85 260.639 1796.28 260.314 1794.87 259.663C1793.47 259 1792.35 258.047 1791.52 256.804C1790.69 255.549 1790.28 254.034 1790.28 252.259C1790.28 250.696 1790.58 249.429 1791.2 248.459C1791.81 247.476 1792.64 246.707 1793.67 246.151C1794.7 245.594 1795.83 245.18 1797.08 244.908C1798.33 244.624 1799.59 244.399 1800.86 244.233C1802.52 244.02 1803.86 243.86 1804.89 243.754C1805.93 243.635 1806.69 243.44 1807.16 243.168C1807.65 242.895 1807.89 242.422 1807.89 241.747V241.605C1807.89 239.853 1807.41 238.492 1806.45 237.521C1805.5 236.551 1804.07 236.065 1802.14 236.065C1800.14 236.065 1798.57 236.503 1797.43 237.379C1796.29 238.255 1795.5 239.19 1795.03 240.185L1791.06 238.764C1791.77 237.107 1792.71 235.817 1793.9 234.893C1795.09 233.958 1796.4 233.307 1797.8 232.94C1799.22 232.562 1800.62 232.372 1801.99 232.372C1802.87 232.372 1803.88 232.479 1805.01 232.692C1806.16 232.893 1807.27 233.313 1808.33 233.952C1809.41 234.592 1810.3 235.556 1811.01 236.847C1811.72 238.137 1812.08 239.865 1812.08 242.031V260H1807.89V256.307H1807.68C1807.39 256.899 1806.92 257.532 1806.26 258.207C1805.59 258.881 1804.71 259.455 1803.61 259.929C1802.51 260.402 1801.17 260.639 1799.58 260.639ZM1800.22 256.875C1801.88 256.875 1803.27 256.549 1804.41 255.898C1805.56 255.247 1806.42 254.407 1807 253.377C1807.59 252.347 1807.89 251.264 1807.89 250.128V246.293C1807.71 246.506 1807.32 246.701 1806.72 246.879C1806.13 247.044 1805.44 247.192 1804.66 247.322C1803.89 247.441 1803.14 247.547 1802.4 247.642C1801.68 247.725 1801.09 247.796 1800.64 247.855C1799.56 247.997 1798.54 248.228 1797.59 248.548C1796.66 248.855 1795.9 249.323 1795.32 249.95C1794.75 250.566 1794.47 251.406 1794.47 252.472C1794.47 253.928 1795 255.028 1796.08 255.774C1797.17 256.508 1798.55 256.875 1800.22 256.875ZM1800.5 229.034L1794.96 220.795H1799.86L1804.2 229.034H1800.5ZM1830.81 260.568C1828.35 260.568 1826.18 259.982 1824.33 258.81C1822.48 257.638 1821.04 255.999 1819.99 253.892C1818.96 251.785 1818.45 249.323 1818.45 246.506C1818.45 243.665 1818.96 241.185 1819.99 239.066C1821.04 236.947 1822.48 235.302 1824.33 234.13C1826.18 232.958 1828.35 232.372 1830.81 232.372C1833.27 232.372 1835.42 232.958 1837.27 234.13C1839.13 235.302 1840.57 236.947 1841.6 239.066C1842.64 241.185 1843.17 243.665 1843.17 246.506C1843.17 249.323 1842.64 251.785 1841.6 253.892C1840.57 255.999 1839.13 257.638 1837.27 258.81C1835.42 259.982 1833.27 260.568 1830.81 260.568ZM1830.81 256.804C1832.68 256.804 1834.22 256.325 1835.42 255.366C1836.63 254.407 1837.52 253.146 1838.1 251.584C1838.68 250.021 1838.97 248.329 1838.97 246.506C1838.97 244.683 1838.68 242.984 1838.1 241.41C1837.52 239.835 1836.63 238.563 1835.42 237.592C1834.22 236.622 1832.68 236.136 1830.81 236.136C1828.94 236.136 1827.4 236.622 1826.19 237.592C1824.98 238.563 1824.09 239.835 1823.51 241.41C1822.93 242.984 1822.64 244.683 1822.64 246.506C1822.64 248.329 1822.93 250.021 1823.51 251.584C1824.09 253.146 1824.98 254.407 1826.19 255.366C1827.4 256.325 1828.94 256.804 1830.81 256.804Z" fill="black"/>
<rect y="782" width="344" height="114" fill="#FFBDA3"/>
<path d="M127.665 833H123.261C123.001 831.733 122.545 830.621 121.894 829.662C121.255 828.703 120.474 827.898 119.55 827.247C118.639 826.584 117.627 826.087 116.514 825.756C115.402 825.424 114.241 825.259 113.034 825.259C110.832 825.259 108.838 825.815 107.05 826.928C105.275 828.04 103.86 829.68 102.807 831.846C101.765 834.012 101.244 836.67 101.244 839.818C101.244 842.967 101.765 845.624 102.807 847.79C103.86 849.957 105.275 851.596 107.05 852.709C108.838 853.821 110.832 854.378 113.034 854.378C114.241 854.378 115.402 854.212 116.514 853.881C117.627 853.549 118.639 853.058 119.55 852.407C120.474 851.744 121.255 850.933 121.894 849.974C122.545 849.004 123.001 847.891 123.261 846.636H127.665C127.333 848.495 126.73 850.158 125.854 851.626C124.978 853.094 123.889 854.342 122.587 855.372C121.285 856.39 119.823 857.165 118.201 857.698C116.591 858.231 114.869 858.497 113.034 858.497C109.933 858.497 107.175 857.74 104.76 856.224C102.345 854.709 100.445 852.555 99.0604 849.761C97.6754 846.968 96.983 843.653 96.983 839.818C96.983 835.983 97.6754 832.669 99.0604 829.875C100.445 827.081 102.345 824.927 104.76 823.412C107.175 821.897 109.933 821.139 113.034 821.139C114.869 821.139 116.591 821.406 118.201 821.938C119.823 822.471 121.285 823.252 122.587 824.282C123.889 825.3 124.978 826.543 125.854 828.011C126.73 829.467 127.333 831.13 127.665 833ZM158.786 829.52H162.479C162.479 831.319 162.242 832.828 161.769 834.048C161.296 835.255 160.467 836.166 159.283 836.782C158.099 837.386 156.442 837.688 154.312 837.688V834.776C155.779 834.776 156.821 834.598 157.437 834.243C158.064 833.876 158.443 833.308 158.573 832.538C158.715 831.757 158.786 830.751 158.786 829.52ZM151.4 846.849V830.727H155.59V858H151.4V853.384H151.116C150.476 854.768 149.482 855.946 148.133 856.917C146.783 857.876 145.079 858.355 143.019 858.355C141.314 858.355 139.799 857.982 138.474 857.237C137.148 856.479 136.106 855.343 135.349 853.827C134.591 852.3 134.212 850.377 134.212 848.057V830.727H138.403V847.773C138.403 849.761 138.959 851.348 140.072 852.531C141.196 853.715 142.628 854.307 144.368 854.307C145.41 854.307 146.47 854.04 147.547 853.508C148.636 852.975 149.547 852.158 150.281 851.058C151.027 849.957 151.4 848.554 151.4 846.849ZM146.783 827.034H143.303V823.199C144.546 823.128 145.422 822.956 145.931 822.684C146.452 822.412 146.712 821.991 146.712 821.423C146.712 820.784 146.339 820.317 145.594 820.021C144.848 819.725 143.942 819.577 142.877 819.577L143.019 816.878C145.469 816.878 147.322 817.304 148.577 818.156C149.843 819.009 150.476 820.145 150.476 821.565C150.476 822.773 150.092 823.655 149.322 824.211C148.553 824.767 147.706 825.116 146.783 825.259V827.034ZM173.341 858.639C171.613 858.639 170.045 858.314 168.636 857.663C167.227 857 166.109 856.047 165.28 854.804C164.452 853.549 164.037 852.034 164.037 850.259C164.037 848.696 164.345 847.429 164.961 846.459C165.576 845.476 166.399 844.707 167.429 844.151C168.458 843.594 169.595 843.18 170.838 842.908C172.092 842.624 173.353 842.399 174.62 842.233C176.277 842.02 177.62 841.86 178.65 841.754C179.692 841.635 180.449 841.44 180.923 841.168C181.408 840.895 181.651 840.422 181.651 839.747V839.605C181.651 837.853 181.172 836.492 180.213 835.521C179.266 834.551 177.828 834.065 175.898 834.065C173.898 834.065 172.329 834.503 171.193 835.379C170.056 836.255 169.257 837.19 168.796 838.185L164.819 836.764C165.529 835.107 166.476 833.817 167.659 832.893C168.855 831.958 170.157 831.307 171.566 830.94C172.986 830.562 174.383 830.372 175.756 830.372C176.632 830.372 177.638 830.479 178.775 830.692C179.923 830.893 181.029 831.313 182.095 831.952C183.172 832.592 184.066 833.556 184.776 834.847C185.486 836.137 185.841 837.865 185.841 840.031V858H181.651V854.307H181.438C181.154 854.899 180.68 855.532 180.017 856.207C179.355 856.881 178.473 857.455 177.372 857.929C176.271 858.402 174.927 858.639 173.341 858.639ZM173.98 854.875C175.638 854.875 177.034 854.549 178.171 853.898C179.319 853.247 180.183 852.407 180.763 851.377C181.355 850.347 181.651 849.264 181.651 848.128V844.293C181.473 844.506 181.083 844.701 180.479 844.879C179.887 845.044 179.201 845.192 178.419 845.322C177.65 845.441 176.898 845.547 176.164 845.642C175.442 845.725 174.856 845.796 174.407 845.855C173.318 845.997 172.3 846.228 171.353 846.548C170.417 846.855 169.66 847.323 169.08 847.95C168.512 848.566 168.228 849.406 168.228 850.472C168.228 851.928 168.766 853.028 169.843 853.774C170.932 854.508 172.311 854.875 173.98 854.875ZM207.552 858V830.727H211.6V834.847H211.884C212.382 833.497 213.281 832.402 214.583 831.562C215.885 830.721 217.353 830.301 218.987 830.301C219.294 830.301 219.679 830.307 220.141 830.319C220.602 830.331 220.952 830.348 221.188 830.372V834.634C221.046 834.598 220.721 834.545 220.212 834.474C219.715 834.391 219.188 834.349 218.632 834.349C217.306 834.349 216.122 834.628 215.08 835.184C214.051 835.728 213.234 836.486 212.63 837.457C212.038 838.415 211.742 839.51 211.742 840.741V858H207.552ZM234.181 858.639C232.453 858.639 230.884 858.314 229.476 857.663C228.067 857 226.949 856.047 226.12 854.804C225.291 853.549 224.877 852.034 224.877 850.259C224.877 848.696 225.185 847.429 225.8 846.459C226.416 845.476 227.239 844.707 228.268 844.151C229.298 843.594 230.435 843.18 231.678 842.908C232.932 842.624 234.193 842.399 235.46 842.233C237.117 842.02 238.46 841.86 239.49 841.754C240.532 841.635 241.289 841.44 241.763 841.168C242.248 840.895 242.491 840.422 242.491 839.747V839.605C242.491 837.853 242.011 836.492 241.053 835.521C240.106 834.551 238.667 834.065 236.738 834.065C234.737 834.065 233.169 834.503 232.033 835.379C230.896 836.255 230.097 837.19 229.636 838.185L225.658 836.764C226.369 835.107 227.316 833.817 228.499 832.893C229.695 831.958 230.997 831.307 232.406 830.94C233.826 830.562 235.223 830.372 236.596 830.372C237.472 830.372 238.478 830.479 239.614 830.692C240.763 830.893 241.869 831.313 242.935 831.952C244.012 832.592 244.906 833.556 245.616 834.847C246.326 836.137 246.681 837.865 246.681 840.031V858H242.491V854.307H242.278C241.994 854.899 241.52 855.532 240.857 856.207C240.194 856.881 239.313 857.455 238.212 857.929C237.111 858.402 235.767 858.639 234.181 858.639ZM234.82 854.875C236.478 854.875 237.874 854.549 239.011 853.898C240.159 853.247 241.023 852.407 241.603 851.377C242.195 850.347 242.491 849.264 242.491 848.128V844.293C242.313 844.506 241.923 844.701 241.319 844.879C240.727 845.044 240.04 845.192 239.259 845.322C238.49 845.441 237.738 845.547 237.004 845.642C236.282 845.725 235.696 845.796 235.246 845.855C234.157 845.997 233.139 846.228 232.192 846.548C231.257 846.855 230.5 847.323 229.92 847.95C229.352 848.566 229.067 849.406 229.067 850.472C229.067 851.928 229.606 853.028 230.683 853.774C231.772 854.508 233.151 854.875 234.82 854.875Z" fill="black"/>
<rect x="344" y="540" width="178" height="178" fill="#D9D9D9"/>
<rect x="344" y="241" width="178" height="178" fill="#D9D9D9"/>
<rect x="644" y="241" width="178" height="178" fill="#FFBDA3"/>
<rect x="644" y="540" width="178" height="178" fill="#FFBDA3"/>
<rect x="944" y="540" width="178" height="178" fill="#FFBDA3"/>
<rect x="1244" y="540" width="178" height="178" fill="#00FF1E"/>
<rect x="944" y="241" width="178" height="178" fill="#FFBDA3"/>
<rect x="1244" y="241" width="178" height="178" fill="#00FF1E"/>
<path d="M1309.4 349V312.636H1322.12C1324.65 312.636 1326.74 313.074 1328.38 313.95C1330.03 314.814 1331.25 315.98 1332.06 317.448C1332.86 318.904 1333.27 320.52 1333.27 322.295C1333.27 323.858 1332.99 325.148 1332.43 326.166C1331.89 327.184 1331.17 327.989 1330.27 328.581C1329.38 329.173 1328.41 329.611 1327.37 329.895V330.25C1328.48 330.321 1329.6 330.712 1330.73 331.422C1331.85 332.132 1332.79 333.15 1333.55 334.476C1334.31 335.802 1334.69 337.423 1334.69 339.341C1334.69 341.164 1334.27 342.803 1333.44 344.259C1332.62 345.715 1331.31 346.869 1329.52 347.722C1327.73 348.574 1325.41 349 1322.54 349H1309.4ZM1313.81 345.094H1322.54C1325.42 345.094 1327.46 344.537 1328.67 343.425C1329.89 342.3 1330.5 340.939 1330.5 339.341C1330.5 338.11 1330.18 336.973 1329.56 335.932C1328.93 334.878 1328.04 334.038 1326.88 333.411C1325.71 332.771 1324.34 332.452 1322.76 332.452H1313.81V345.094ZM1313.81 328.616H1321.97C1323.3 328.616 1324.5 328.356 1325.56 327.835C1326.64 327.314 1327.49 326.58 1328.12 325.634C1328.76 324.687 1329.08 323.574 1329.08 322.295C1329.08 320.697 1328.52 319.342 1327.41 318.229C1326.29 317.105 1324.53 316.543 1322.12 316.543H1313.81V328.616ZM1354.07 312.636V349H1349.66V317.253H1349.45L1340.57 323.148V318.673L1349.66 312.636H1354.07Z" fill="black"/>
<path d="M1006.4 349V312.636H1019.12C1021.65 312.636 1023.74 313.074 1025.38 313.95C1027.03 314.814 1028.25 315.98 1029.06 317.448C1029.86 318.904 1030.27 320.52 1030.27 322.295C1030.27 323.858 1029.99 325.148 1029.43 326.166C1028.89 327.184 1028.17 327.989 1027.27 328.581C1026.38 329.173 1025.41 329.611 1024.37 329.895V330.25C1025.48 330.321 1026.6 330.712 1027.73 331.422C1028.85 332.132 1029.79 333.15 1030.55 334.476C1031.31 335.802 1031.69 337.423 1031.69 339.341C1031.69 341.164 1031.27 342.803 1030.44 344.259C1029.62 345.715 1028.31 346.869 1026.52 347.722C1024.73 348.574 1022.41 349 1019.54 349H1006.4ZM1010.81 345.094H1019.54C1022.42 345.094 1024.46 344.537 1025.67 343.425C1026.89 342.3 1027.5 340.939 1027.5 339.341C1027.5 338.11 1027.18 336.973 1026.56 335.932C1025.93 334.878 1025.04 334.038 1023.88 333.411C1022.71 332.771 1021.34 332.452 1019.76 332.452H1010.81V345.094ZM1010.81 328.616H1018.97C1020.3 328.616 1021.5 328.356 1022.56 327.835C1023.64 327.314 1024.49 326.58 1025.12 325.634C1025.76 324.687 1026.08 323.574 1026.08 322.295C1026.08 320.697 1025.52 319.342 1024.41 318.229C1023.29 317.105 1021.53 316.543 1019.12 316.543H1010.81V328.616ZM1038.28 349V345.804L1050.29 332.665C1051.7 331.126 1052.86 329.788 1053.77 328.652C1054.68 327.504 1055.35 326.427 1055.79 325.42C1056.24 324.402 1056.47 323.337 1056.47 322.224C1056.47 320.946 1056.16 319.839 1055.54 318.904C1054.94 317.969 1054.11 317.247 1053.06 316.738C1052 316.229 1050.82 315.974 1049.51 315.974C1048.11 315.974 1046.89 316.264 1045.85 316.844C1044.82 317.413 1044.02 318.212 1043.45 319.241C1042.89 320.271 1042.62 321.479 1042.62 322.864H1038.43C1038.43 320.733 1038.92 318.863 1039.9 317.253C1040.88 315.643 1042.22 314.388 1043.91 313.489C1045.62 312.589 1047.53 312.139 1049.65 312.139C1051.78 312.139 1053.67 312.589 1055.31 313.489C1056.96 314.388 1058.25 315.602 1059.18 317.129C1060.12 318.656 1060.58 320.354 1060.58 322.224C1060.58 323.562 1060.34 324.87 1059.86 326.148C1059.38 327.415 1058.55 328.83 1057.37 330.392C1056.2 331.943 1054.57 333.837 1052.49 336.074L1044.32 344.81V345.094H1061.22V349H1038.28Z" fill="black"/>
<path d="M706.403 648V611.636H719.116C721.65 611.636 723.739 612.074 725.384 612.95C727.03 613.814 728.255 614.98 729.06 616.448C729.865 617.904 730.267 619.52 730.267 621.295C730.267 622.858 729.989 624.148 729.433 625.166C728.888 626.184 728.166 626.989 727.266 627.581C726.379 628.173 725.414 628.611 724.372 628.895V629.25C725.485 629.321 726.603 629.712 727.728 630.422C728.853 631.132 729.794 632.15 730.551 633.476C731.309 634.802 731.688 636.423 731.688 638.341C731.688 640.164 731.273 641.803 730.445 643.259C729.616 644.715 728.308 645.869 726.521 646.722C724.733 647.574 722.407 648 719.543 648H706.403ZM710.807 644.094H719.543C722.419 644.094 724.461 643.537 725.668 642.425C726.888 641.3 727.497 639.939 727.497 638.341C727.497 637.11 727.183 635.973 726.556 634.932C725.929 633.878 725.035 633.038 723.875 632.411C722.715 631.771 721.342 631.452 719.756 631.452H710.807V644.094ZM710.807 627.616H718.974C720.3 627.616 721.496 627.356 722.561 626.835C723.638 626.314 724.491 625.58 725.118 624.634C725.757 623.687 726.077 622.574 726.077 621.295C726.077 619.697 725.52 618.342 724.408 617.229C723.295 616.105 721.531 615.543 719.116 615.543H710.807V627.616ZM738.284 648V644.804L750.287 631.665C751.695 630.126 752.855 628.788 753.767 627.652C754.678 626.504 755.353 625.427 755.791 624.42C756.241 623.402 756.466 622.337 756.466 621.224C756.466 619.946 756.158 618.839 755.542 617.904C754.939 616.969 754.11 616.247 753.056 615.738C752.003 615.229 750.819 614.974 749.505 614.974C748.109 614.974 746.889 615.264 745.848 615.844C744.818 616.413 744.019 617.212 743.451 618.241C742.894 619.271 742.616 620.479 742.616 621.864H738.426C738.426 619.733 738.917 617.863 739.9 616.253C740.882 614.643 742.22 613.388 743.912 612.489C745.617 611.589 747.529 611.139 749.647 611.139C751.778 611.139 753.666 611.589 755.311 612.489C756.957 613.388 758.247 614.602 759.182 616.129C760.117 617.656 760.585 619.354 760.585 621.224C760.585 622.562 760.342 623.87 759.857 625.148C759.383 626.415 758.555 627.83 757.371 629.392C756.199 630.943 754.572 632.837 752.488 635.074L744.321 643.81V644.094H761.224V648H738.284Z" fill="black"/>
<path d="M706.403 349V312.636H719.116C721.65 312.636 723.739 313.074 725.384 313.95C727.03 314.814 728.255 315.98 729.06 317.448C729.865 318.904 730.267 320.52 730.267 322.295C730.267 323.858 729.989 325.148 729.433 326.166C728.888 327.184 728.166 327.989 727.266 328.581C726.379 329.173 725.414 329.611 724.372 329.895V330.25C725.485 330.321 726.603 330.712 727.728 331.422C728.853 332.132 729.794 333.15 730.551 334.476C731.309 335.802 731.688 337.423 731.688 339.341C731.688 341.164 731.273 342.803 730.445 344.259C729.616 345.715 728.308 346.869 726.521 347.722C724.733 348.574 722.407 349 719.543 349H706.403ZM710.807 345.094H719.543C722.419 345.094 724.461 344.537 725.668 343.425C726.888 342.3 727.497 340.939 727.497 339.341C727.497 338.11 727.183 336.973 726.556 335.932C725.929 334.878 725.035 334.038 723.875 333.411C722.715 332.771 721.342 332.452 719.756 332.452H710.807V345.094ZM710.807 328.616H718.974C720.3 328.616 721.496 328.356 722.561 327.835C723.638 327.314 724.491 326.58 725.118 325.634C725.757 324.687 726.077 323.574 726.077 322.295C726.077 320.697 725.52 319.342 724.408 318.229C723.295 317.105 721.531 316.543 719.116 316.543H710.807V328.616ZM738.284 349V345.804L750.287 332.665C751.695 331.126 752.855 329.788 753.767 328.652C754.678 327.504 755.353 326.427 755.791 325.42C756.241 324.402 756.466 323.337 756.466 322.224C756.466 320.946 756.158 319.839 755.542 318.904C754.939 317.969 754.11 317.247 753.056 316.738C752.003 316.229 750.819 315.974 749.505 315.974C748.109 315.974 746.889 316.264 745.848 316.844C744.818 317.413 744.019 318.212 743.451 319.241C742.894 320.271 742.616 321.479 742.616 322.864H738.426C738.426 320.733 738.917 318.863 739.9 317.253C740.882 315.643 742.22 314.388 743.912 313.489C745.617 312.589 747.529 312.139 749.647 312.139C751.778 312.139 753.666 312.589 755.311 313.489C756.957 314.388 758.247 315.602 759.182 317.129C760.117 318.656 760.585 320.354 760.585 322.224C760.585 323.562 760.342 324.87 759.857 326.148C759.383 327.415 758.555 328.83 757.371 330.392C756.199 331.943 754.572 333.837 752.488 336.074L744.321 344.81V345.094H761.224V349H738.284Z" fill="black"/>
<path d="M406.403 349V312.636H419.116C421.65 312.636 423.739 313.074 425.384 313.95C427.03 314.814 428.255 315.98 429.06 317.448C429.865 318.904 430.267 320.52 430.267 322.295C430.267 323.858 429.989 325.148 429.433 326.166C428.888 327.184 428.166 327.989 427.266 328.581C426.379 329.173 425.414 329.611 424.372 329.895V330.25C425.485 330.321 426.603 330.712 427.728 331.422C428.853 332.132 429.794 333.15 430.551 334.476C431.309 335.802 431.688 337.423 431.688 339.341C431.688 341.164 431.273 342.803 430.445 344.259C429.616 345.715 428.308 346.869 426.521 347.722C424.733 348.574 422.407 349 419.543 349H406.403ZM410.807 345.094H419.543C422.419 345.094 424.461 344.537 425.668 343.425C426.888 342.3 427.497 340.939 427.497 339.341C427.497 338.11 427.183 336.973 426.556 335.932C425.929 334.878 425.035 334.038 423.875 333.411C422.715 332.771 421.342 332.452 419.756 332.452H410.807V345.094ZM410.807 328.616H418.974C420.3 328.616 421.496 328.356 422.561 327.835C423.638 327.314 424.491 326.58 425.118 325.634C425.757 324.687 426.077 323.574 426.077 322.295C426.077 320.697 425.52 319.342 424.408 318.229C423.295 317.105 421.531 316.543 419.116 316.543H410.807V328.616ZM450.571 349.497C448.227 349.497 446.138 349.095 444.303 348.29C442.48 347.485 441.03 346.366 439.953 344.934C438.887 343.49 438.307 341.815 438.213 339.909H442.687C442.782 341.081 443.184 342.093 443.895 342.945C444.605 343.786 445.534 344.437 446.682 344.898C447.83 345.36 449.103 345.591 450.5 345.591C452.062 345.591 453.447 345.319 454.654 344.774C455.862 344.23 456.809 343.472 457.495 342.501C458.182 341.531 458.525 340.406 458.525 339.128C458.525 337.79 458.194 336.612 457.531 335.594C456.868 334.565 455.897 333.76 454.619 333.18C453.341 332.6 451.778 332.31 449.931 332.31H447.02V328.403H449.931C451.376 328.403 452.642 328.143 453.731 327.622C454.832 327.101 455.69 326.367 456.306 325.42C456.933 324.473 457.247 323.361 457.247 322.082C457.247 320.851 456.975 319.78 456.43 318.869C455.886 317.957 455.116 317.247 454.122 316.738C453.139 316.229 451.979 315.974 450.642 315.974C449.387 315.974 448.203 316.205 447.091 316.667C445.99 317.117 445.09 317.774 444.392 318.638C443.693 319.49 443.315 320.52 443.255 321.727H438.994C439.065 319.821 439.639 318.152 440.716 316.72C441.793 315.276 443.202 314.152 444.942 313.347C446.694 312.542 448.618 312.139 450.713 312.139C452.962 312.139 454.891 312.595 456.501 313.506C458.111 314.406 459.348 315.596 460.212 317.075C461.076 318.555 461.508 320.153 461.508 321.869C461.508 323.917 460.97 325.663 459.892 327.107C458.827 328.551 457.377 329.552 455.542 330.108V330.392C457.839 330.771 459.632 331.747 460.922 333.322C462.212 334.884 462.858 336.82 462.858 339.128C462.858 341.105 462.319 342.88 461.242 344.455C460.176 346.017 458.721 347.248 456.874 348.148C455.027 349.047 452.926 349.497 450.571 349.497Z" fill="black"/>
<path d="M406.403 648V611.636H419.116C421.65 611.636 423.739 612.074 425.384 612.95C427.03 613.814 428.255 614.98 429.06 616.448C429.865 617.904 430.267 619.52 430.267 621.295C430.267 622.858 429.989 624.148 429.433 625.166C428.888 626.184 428.166 626.989 427.266 627.581C426.379 628.173 425.414 628.611 424.372 628.895V629.25C425.485 629.321 426.603 629.712 427.728 630.422C428.853 631.132 429.794 632.15 430.551 633.476C431.309 634.802 431.688 636.423 431.688 638.341C431.688 640.164 431.273 641.803 430.445 643.259C429.616 644.715 428.308 645.869 426.521 646.722C424.733 647.574 422.407 648 419.543 648H406.403ZM410.807 644.094H419.543C422.419 644.094 424.461 643.537 425.668 642.425C426.888 641.3 427.497 639.939 427.497 638.341C427.497 637.11 427.183 635.973 426.556 634.932C425.929 633.878 425.035 633.038 423.875 632.411C422.715 631.771 421.342 631.452 419.756 631.452H410.807V644.094ZM410.807 627.616H418.974C420.3 627.616 421.496 627.356 422.561 626.835C423.638 626.314 424.491 625.58 425.118 624.634C425.757 623.687 426.077 622.574 426.077 621.295C426.077 619.697 425.52 618.342 424.408 617.229C423.295 616.105 421.531 615.543 419.116 615.543H410.807V627.616ZM450.571 648.497C448.227 648.497 446.138 648.095 444.303 647.29C442.48 646.485 441.03 645.366 439.953 643.934C438.887 642.49 438.307 640.815 438.213 638.909H442.687C442.782 640.081 443.184 641.093 443.895 641.945C444.605 642.786 445.534 643.437 446.682 643.898C447.83 644.36 449.103 644.591 450.5 644.591C452.062 644.591 453.447 644.319 454.654 643.774C455.862 643.23 456.809 642.472 457.495 641.501C458.182 640.531 458.525 639.406 458.525 638.128C458.525 636.79 458.194 635.612 457.531 634.594C456.868 633.565 455.897 632.76 454.619 632.18C453.341 631.6 451.778 631.31 449.931 631.31H447.02V627.403H449.931C451.376 627.403 452.642 627.143 453.731 626.622C454.832 626.101 455.69 625.367 456.306 624.42C456.933 623.473 457.247 622.361 457.247 621.082C457.247 619.851 456.975 618.78 456.43 617.869C455.886 616.957 455.116 616.247 454.122 615.738C453.139 615.229 451.979 614.974 450.642 614.974C449.387 614.974 448.203 615.205 447.091 615.667C445.99 616.117 445.09 616.774 444.392 617.638C443.693 618.49 443.315 619.52 443.255 620.727H438.994C439.065 618.821 439.639 617.152 440.716 615.72C441.793 614.276 443.202 613.152 444.942 612.347C446.694 611.542 448.618 611.139 450.713 611.139C452.962 611.139 454.891 611.595 456.501 612.506C458.111 613.406 459.348 614.596 460.212 616.075C461.076 617.555 461.508 619.153 461.508 620.869C461.508 622.917 460.97 624.663 459.892 626.107C458.827 627.551 457.377 628.552 455.542 629.108V629.392C457.839 629.771 459.632 630.747 460.922 632.322C462.212 633.884 462.858 635.82 462.858 638.128C462.858 640.105 462.319 641.88 461.242 643.455C460.176 645.017 458.721 646.248 456.874 647.148C455.027 648.047 452.926 648.497 450.571 648.497Z" fill="black"/>
<path d="M1006.4 648V611.636H1019.12C1021.65 611.636 1023.74 612.074 1025.38 612.95C1027.03 613.814 1028.25 614.98 1029.06 616.448C1029.86 617.904 1030.27 619.52 1030.27 621.295C1030.27 622.858 1029.99 624.148 1029.43 625.166C1028.89 626.184 1028.17 626.989 1027.27 627.581C1026.38 628.173 1025.41 628.611 1024.37 628.895V629.25C1025.48 629.321 1026.6 629.712 1027.73 630.422C1028.85 631.132 1029.79 632.15 1030.55 633.476C1031.31 634.802 1031.69 636.423 1031.69 638.341C1031.69 640.164 1031.27 641.803 1030.44 643.259C1029.62 644.715 1028.31 645.869 1026.52 646.722C1024.73 647.574 1022.41 648 1019.54 648H1006.4ZM1010.81 644.094H1019.54C1022.42 644.094 1024.46 643.537 1025.67 642.425C1026.89 641.3 1027.5 639.939 1027.5 638.341C1027.5 637.11 1027.18 635.973 1026.56 634.932C1025.93 633.878 1025.04 633.038 1023.88 632.411C1022.71 631.771 1021.34 631.452 1019.76 631.452H1010.81V644.094ZM1010.81 627.616H1018.97C1020.3 627.616 1021.5 627.356 1022.56 626.835C1023.64 626.314 1024.49 625.58 1025.12 624.634C1025.76 623.687 1026.08 622.574 1026.08 621.295C1026.08 619.697 1025.52 618.342 1024.41 617.229C1023.29 616.105 1021.53 615.543 1019.12 615.543H1010.81V627.616ZM1038.28 648V644.804L1050.29 631.665C1051.7 630.126 1052.86 628.788 1053.77 627.652C1054.68 626.504 1055.35 625.427 1055.79 624.42C1056.24 623.402 1056.47 622.337 1056.47 621.224C1056.47 619.946 1056.16 618.839 1055.54 617.904C1054.94 616.969 1054.11 616.247 1053.06 615.738C1052 615.229 1050.82 614.974 1049.51 614.974C1048.11 614.974 1046.89 615.264 1045.85 615.844C1044.82 616.413 1044.02 617.212 1043.45 618.241C1042.89 619.271 1042.62 620.479 1042.62 621.864H1038.43C1038.43 619.733 1038.92 617.863 1039.9 616.253C1040.88 614.643 1042.22 613.388 1043.91 612.489C1045.62 611.589 1047.53 611.139 1049.65 611.139C1051.78 611.139 1053.67 611.589 1055.31 612.489C1056.96 613.388 1058.25 614.602 1059.18 616.129C1060.12 617.656 1060.58 619.354 1060.58 621.224C1060.58 622.562 1060.34 623.87 1059.86 625.148C1059.38 626.415 1058.55 627.83 1057.37 629.392C1056.2 630.943 1054.57 632.837 1052.49 635.074L1044.32 643.81V644.094H1061.22V648H1038.28Z" fill="black"/>
<path d="M1309.4 648V611.636H1322.12C1324.65 611.636 1326.74 612.074 1328.38 612.95C1330.03 613.814 1331.25 614.98 1332.06 616.448C1332.86 617.904 1333.27 619.52 1333.27 621.295C1333.27 622.858 1332.99 624.148 1332.43 625.166C1331.89 626.184 1331.17 626.989 1330.27 627.581C1329.38 628.173 1328.41 628.611 1327.37 628.895V629.25C1328.48 629.321 1329.6 629.712 1330.73 630.422C1331.85 631.132 1332.79 632.15 1333.55 633.476C1334.31 634.802 1334.69 636.423 1334.69 638.341C1334.69 640.164 1334.27 641.803 1333.44 643.259C1332.62 644.715 1331.31 645.869 1329.52 646.722C1327.73 647.574 1325.41 648 1322.54 648H1309.4ZM1313.81 644.094H1322.54C1325.42 644.094 1327.46 643.537 1328.67 642.425C1329.89 641.3 1330.5 639.939 1330.5 638.341C1330.5 637.11 1330.18 635.973 1329.56 634.932C1328.93 633.878 1328.04 633.038 1326.88 632.411C1325.71 631.771 1324.34 631.452 1322.76 631.452H1313.81V644.094ZM1313.81 627.616H1321.97C1323.3 627.616 1324.5 627.356 1325.56 626.835C1326.64 626.314 1327.49 625.58 1328.12 624.634C1328.76 623.687 1329.08 622.574 1329.08 621.295C1329.08 619.697 1328.52 618.342 1327.41 617.229C1326.29 616.105 1324.53 615.543 1322.12 615.543H1313.81V627.616ZM1354.07 611.636V648H1349.66V616.253H1349.45L1340.57 622.148V617.673L1349.66 611.636H1354.07Z" fill="black"/>
</svg>
