<?xml version="1.0" standalone="no"?>
<!DOCTYPE svg PUBLIC "-//W3C//DTD SVG 20010904//EN"
 "http://www.w3.org/TR/2001/REC-SVG-20010904/DTD/svg10.dtd">
<svg version="1.0" xmlns="http://www.w3.org/2000/svg"
 width="1772.000000pt" height="1087.000000pt" viewBox="0 0 1772.000000 1087.000000"
 preserveAspectRatio="xMidYMid meet">

<g transform="translate(0.000000,1087.000000) scale(0.100000,-0.100000)"
fill="#000000" stroke="none">
<path d="M6524 9625 c-10 -8 -14 -15 -8 -15 6 0 17 7 24 15 16 19 9 19 -16 0z"/>
<path d="M6552 9599 c-18 -12 -31 -24 -28 -26 6 -7 66 29 66 39 0 11 0 11 -38
-13z"/>
<path d="M4378 9583 c7 -3 16 -2 19 1 4 3 -2 6 -13 5 -11 0 -14 -3 -6 -6z"/>
<path d="M4438 9575 c18 -8 35 -21 38 -30 4 -9 18 -15 36 -15 38 0 67 -16 78
-43 6 -16 9 -18 9 -5 1 22 -46 58 -76 58 -14 0 -38 11 -55 25 -16 14 -37 25
-46 25 -9 -1 -2 -7 16 -15z"/>
<path d="M4336 9565 c-11 -8 -15 -15 -9 -15 6 0 16 7 23 15 16 19 11 19 -14 0z"/>
<path d="M3948 9554 c-33 -17 -34 -26 -9 -120 22 -86 27 -94 52 -94 14 0 21
-9 25 -29 4 -20 13 -30 30 -34 19 -3 22 -1 14 8 -6 7 -13 41 -15 76 -6 86 -37
203 -56 206 -8 1 -26 -4 -41 -13z m69 -80 c30 -112 30 -124 -7 -124 -35 0 -41
10 -66 110 -16 64 -16 65 7 83 12 10 27 16 33 14 6 -2 21 -39 33 -83z"/>
<path d="M4268 9553 c6 -2 18 -2 25 0 6 3 1 5 -13 5 -14 0 -19 -2 -12 -5z"/>
<path d="M4219 9533 c-13 -17 -13 -17 6 -3 11 8 22 16 24 17 2 2 0 3 -6 3 -6
0 -17 -8 -24 -17z"/>
<path d="M4202 9490 c0 -14 2 -19 5 -12 2 6 2 18 0 25 -3 6 -5 1 -5 -13z"/>
<path d="M6555 9380 l-220 -128 -3 -247 c-2 -197 0 -246 10 -242 7 3 110 61
228 130 l215 125 0 242 c0 133 -2 243 -5 245 -3 2 -104 -55 -225 -125z"/>
<path d="M12220 9485 c-14 -8 -20 -14 -14 -15 5 0 19 7 30 15 24 18 16 19 -16
0z"/>
<path d="M4358 9473 c12 -2 32 -2 45 0 12 2 2 4 -23 4 -25 0 -35 -2 -22 -4z"/>
<path d="M6284 9464 c-18 -14 -18 -15 4 -4 12 6 22 13 22 15 0 8 -5 6 -26 -11z"/>
<path d="M4242 9429 c15 -14 28 -32 28 -39 0 -7 2 -11 5 -8 3 3 2 19 -1 37 -5
22 -9 28 -15 20 -6 -11 -11 -10 -26 1 -11 8 -6 3 9 -11z"/>
<path d="M4471 9457 c2 -2 18 -11 34 -21 l30 -17 -24 20 c-13 12 -28 21 -34
21 -6 0 -8 -1 -6 -3z"/>
<path d="M4588 9442 c-3 -12 -17 -26 -30 -31 -14 -6 -17 -10 -7 -10 20 -1 52
34 47 51 -3 7 -7 3 -10 -10z"/>
<path d="M6317 9444 c-16 -9 -27 -18 -24 -21 6 -5 67 24 67 32 0 8 -14 5 -43
-11z"/>
<path d="M4402 9420 c0 -14 2 -19 5 -12 2 6 2 18 0 25 -3 6 -5 1 -5 -13z"/>
<path d="M5901 9365 c-2 -44 -2 -101 -1 -127 1 -29 -3 -48 -9 -48 -6 0 -11 11
-11 25 0 14 -4 25 -10 25 -5 0 -9 -3 -9 -7 6 -35 -3 -123 -12 -123 -6 0 -10
19 -9 48 3 87 0 195 -5 190 -3 -3 -6 -54 -6 -113 0 -89 -2 -106 -15 -101 -7 3
-14 1 -14 -4 0 -6 5 -10 10 -10 13 0 13 -87 -1 -92 -14 -5 151 -102 173 -102
9 0 15 -3 12 -7 -3 -6 236 -149 250 -149 10 0 5 219 -5 226 -5 3 -9 23 -9 45
0 24 4 38 10 34 6 -3 10 -2 10 4 0 5 -4 13 -10 16 -5 3 -10 26 -10 51 0 28 4
43 10 39 6 -3 10 -1 10 4 0 6 -4 11 -10 11 -5 0 -11 15 -11 33 -1 23 -3 26 -6
10 -6 -33 -33 -29 -34 5 -1 17 -3 21 -6 9 -5 -19 -30 -18 -26 1 2 7 -4 9 -13
5 -9 -3 -20 0 -25 8 -7 11 -9 11 -9 -2 0 -9 9 -19 20 -22 16 -4 20 -14 20 -51
0 -74 -20 -59 -33 24 -3 16 -5 11 -6 -15 -2 -37 -3 -39 -16 -21 -17 22 -17 20
-15 -48 1 -36 -2 -47 -12 -44 -13 5 -16 31 -17 166 -1 34 -4 62 -8 62 -5 0 -7
-47 -5 -105 1 -66 -2 -105 -8 -105 -9 0 -15 57 -11 102 1 9 -3 19 -9 23 -7 5
-11 0 -10 -11 5 -44 -1 -95 -9 -89 -6 3 -10 65 -10 137 -1 72 -3 133 -6 136
-3 3 -5 -31 -5 -76 l0 -81 -27 14 c-26 14 -28 20 -34 97 l-5 83 -3 -80z m69
-170 c0 -25 -4 -45 -10 -45 -5 0 -10 17 -10 38 0 20 -5 44 -10 52 -7 11 -10 3
-10 -28 0 -26 -4 -41 -10 -37 -5 3 -10 26 -10 51 l0 45 30 -16 c27 -14 30 -21
30 -60z m210 -21 c0 -28 -4 -43 -10 -39 -5 3 -10 26 -10 51 0 28 4 43 10 39 6
-3 10 -26 10 -51z m38 -19 c3 -43 1 -47 -12 -36 -20 17 -22 95 -3 89 7 -3 13
-26 15 -53z m-318 -20 c0 -25 -4 -45 -10 -45 -5 0 -10 20 -10 45 0 25 5 45 10
45 6 0 10 -20 10 -45z m30 -20 c0 -25 -4 -45 -10 -45 -5 0 -10 20 -10 45 0 25
5 45 10 45 6 0 10 -20 10 -45z m180 -1 c0 -27 -4 -43 -10 -39 -5 3 -10 24 -10
46 0 21 5 39 10 39 6 0 10 -21 10 -46z m-140 -19 c0 -25 -4 -45 -10 -45 -5 0
-10 20 -10 45 0 25 5 45 10 45 6 0 10 -20 10 -45z m175 1 c0 -35 -14 -64 -16
-34 -6 67 -5 78 5 75 6 -2 11 -21 11 -41z m-145 -22 c0 -27 -4 -43 -10 -39 -5
3 -10 24 -10 46 0 21 5 39 10 39 6 0 10 -21 10 -46z m180 0 c0 -27 -4 -43 -10
-39 -5 3 -10 24 -10 46 0 21 5 39 10 39 6 0 10 -21 10 -46z m-320 -19 c0 -19
-4 -37 -10 -40 -6 -4 -10 12 -10 40 0 28 4 44 10 40 6 -3 10 -21 10 -40z m180
-6 c0 -21 -4 -39 -10 -39 -5 0 -10 21 -10 46 0 27 4 43 10 39 6 -3 10 -24 10
-46z m174 33 c-1 -7 -2 -24 -3 -39 l-3 -28 -8 25 c-12 39 -11 62 3 58 6 -3 12
-10 11 -16z m-144 -42 c0 -22 -4 -40 -10 -40 -5 0 -10 18 -10 40 0 22 5 40 10
40 6 0 10 -18 10 -40z m-172 -10 c-1 -22 -6 -40 -10 -40 -4 0 -8 18 -8 40 0
22 5 40 10 40 6 0 10 -17 8 -40z m32 -21 c0 -21 -4 -39 -9 -39 -5 0 -9 20 -9
45 0 25 4 43 9 39 5 -3 9 -23 9 -45z m180 0 c0 -24 -4 -38 -10 -34 -5 3 -10
22 -10 41 0 19 5 34 10 34 6 0 10 -18 10 -41z m-142 -4 c-1 -14 -6 -25 -10
-25 -4 0 -8 11 -8 25 0 14 4 25 10 25 5 0 9 -11 8 -25z m169 -27 c-2 -13 -4
-5 -4 17 -1 22 1 32 4 23 2 -10 2 -28 0 -40z m43 9 c0 -18 -2 -19 -10 -7 -13
20 -13 43 0 35 6 -3 10 -16 10 -28z m-183 3 c1 -11 -2 -18 -8 -15 -11 7 -12
35 -1 35 4 0 8 -9 9 -20z m41 -31 c-3 -8 -7 -3 -11 10 -4 17 -3 21 5 13 5 -5
8 -16 6 -23z m169 9 c-3 -8 -6 -5 -6 6 -1 11 2 17 5 13 3 -3 4 -12 1 -19z
m-240 -20 c-3 -8 -6 -5 -6 6 -1 11 2 17 5 13 3 -3 4 -12 1 -19z"/>
<path d="M12060 9410 c-24 -15 -7 -18 20 -3 14 7 18 13 10 13 -8 0 -22 -4 -30
-10z"/>
<path d="M4516 9395 c-9 -26 -7 -32 5 -12 6 10 9 21 6 23 -2 3 -7 -2 -11 -11z"/>
<path d="M5927 9369 c7 -7 15 -10 18 -7 3 3 -2 9 -12 12 -14 6 -15 5 -6 -5z"/>
<path d="M12480 9365 c-14 -8 -20 -14 -14 -15 5 0 19 7 30 15 24 18 16 19 -16
0z"/>
<path d="M6042 9350 c0 -14 2 -19 5 -12 2 6 2 18 0 25 -3 6 -5 1 -5 -13z"/>
<path d="M12508 9342 c-21 -10 -38 -20 -38 -24 0 -7 75 23 87 35 10 11 -9 6
-49 -11z"/>
<path d="M4273 9340 c27 -17 20 -27 -19 -24 -28 2 -34 -1 -30 -12 3 -9 1 -25
-5 -36 -16 -30 2 -44 40 -29 53 23 69 103 21 109 -22 2 -23 1 -7 -8z m3 -78
c-17 -16 -18 -16 -5 5 7 12 15 20 18 17 3 -2 -3 -12 -13 -22z m-31 -2 c3 -5
-1 -10 -10 -10 -9 0 -13 5 -10 10 3 6 8 10 10 10 2 0 7 -4 10 -10z"/>
<path d="M6005 9320 c3 -5 8 -10 11 -10 2 0 4 5 4 10 0 6 -5 10 -11 10 -5 0
-7 -4 -4 -10z"/>
<path d="M4480 9310 c0 -12 8 -12 35 0 18 8 17 9 -7 9 -16 1 -28 -3 -28 -9z"/>
<path d="M6072 9284 c10 -10 20 -15 24 -12 3 4 -5 12 -18 18 -22 12 -22 12 -6
-6z"/>
<path d="M12320 9290 c-8 -5 -10 -10 -5 -10 6 0 17 5 25 10 8 5 11 10 5 10 -5
0 -17 -5 -25 -10z"/>
<path d="M12448 9153 c-291 -130 -328 -149 -328 -169 0 -24 -21 -33 558 228
85 38 112 55 112 69 0 11 -3 19 -7 19 -5 -1 -155 -67 -335 -147z"/>
<path d="M4470 9273 c0 -12 5 -25 12 -29 7 -5 8 -2 3 7 -4 8 2 4 14 -9 12 -12
27 -20 32 -16 7 4 7 10 0 17 -6 6 -11 19 -11 29 0 20 -15 24 -26 7 -4 -8 -9
-7 -15 2 -6 10 -9 8 -9 -8z"/>
<path d="M12361 9269 c-24 -11 -42 -22 -39 -25 3 -3 23 3 44 13 47 21 48 22
43 27 -2 2 -24 -5 -48 -15z"/>
<path d="M10705 9270 c-13 -5 -14 -9 -5 -9 8 0 24 4 35 9 13 5 14 9 5 9 -8 0
-24 -4 -35 -9z"/>
<path d="M4050 9244 c0 -8 5 -12 10 -9 6 4 8 11 5 16 -9 14 -15 11 -15 -7z"/>
<path d="M3998 9233 c6 -2 18 -2 25 0 6 3 1 5 -13 5 -14 0 -19 -2 -12 -5z"/>
<path d="M4055 9219 c-16 -11 -24 -19 -16 -19 8 0 11 -7 8 -20 -3 -11 -1 -20
4 -20 5 0 9 9 9 21 0 15 4 19 16 15 9 -3 18 -6 21 -6 3 0 0 -7 -7 -15 -10 -12
-9 -15 4 -15 24 0 66 -30 66 -46 0 -8 11 -19 25 -24 24 -9 25 -11 11 -38 -8
-15 -14 -35 -13 -42 3 -30 -15 -100 -26 -100 -6 0 -25 -16 -44 -36 -25 -28
-39 -35 -58 -32 -32 7 -32 -5 0 -20 14 -6 25 -18 25 -27 0 -8 12 -18 27 -21
15 -4 37 -19 49 -33 19 -22 24 -24 38 -12 9 8 14 22 11 31 -4 12 1 19 15 23
11 3 22 1 25 -3 3 -4 13 -6 24 -3 12 3 20 -2 24 -16 3 -14 13 -21 28 -21 13 0
33 -12 45 -27 24 -30 62 -27 49 5 -4 9 -7 25 -7 35 1 10 -8 27 -19 38 -12 12
-18 24 -14 27 3 4 9 2 13 -4 4 -6 15 -13 25 -17 17 -6 17 -5 3 15 -14 20 -14
24 5 44 25 26 18 44 -14 37 -60 -13 -84 -25 -101 -51 -15 -23 -24 -27 -52 -24
-21 3 -34 0 -34 -7 0 -15 -28 -14 -44 2 -12 12 -10 41 2 33 4 -2 13 2 20 10 7
8 10 14 6 14 -4 0 5 12 20 26 21 22 29 24 41 14 26 -22 48 -4 42 34 -4 24 -1
36 9 40 8 3 11 12 7 23 -6 15 -4 16 9 5 13 -10 17 -10 21 2 4 9 14 12 29 9 22
-6 23 -6 5 14 -17 20 -17 21 18 37 30 15 49 38 28 35 -33 -5 -65 6 -94 32 -31
28 -32 31 -9 23 44 -14 94 -10 135 11 l40 19 -95 8 c-52 3 -107 11 -122 17
-19 7 -29 7 -34 0 -3 -6 -14 -9 -24 -6 -25 7 -15 -17 16 -38 36 -23 30 -37
-13 -30 -72 12 -81 15 -85 33 -3 10 -18 28 -34 39 -28 20 -30 20 -59 2z m272
-455 c-3 -3 -12 -4 -19 -1 -8 3 -5 6 6 6 11 1 17 -2 13 -5z"/>
<path d="M4869 9218 c-9 -7 -49 -49 -90 -93 -41 -44 -86 -85 -101 -92 -14 -6
-32 -22 -39 -35 l-12 -23 25 23 c24 22 48 29 48 14 0 -5 -11 -19 -25 -32 -14
-13 -23 -26 -20 -28 8 -8 55 40 55 56 0 8 30 48 66 89 l67 74 31 -30 c45 -44
72 -40 89 14 7 20 7 20 -8 1 -15 -19 -16 -19 -50 14 -19 18 -32 37 -29 42 10
16 53 8 68 -14 9 -12 16 -18 16 -12 0 17 -35 44 -56 44 -11 0 -27 -6 -35 -12z"/>
<path d="M4518 9203 c6 -2 18 -2 25 0 6 3 1 5 -13 5 -14 0 -19 -2 -12 -5z"/>
<path d="M12448 9063 c-267 -119 -328 -150 -328 -166 0 -14 5 -18 18 -14 9 2
160 69 335 148 248 111 317 147 317 161 0 10 -3 18 -7 18 -5 -1 -155 -67 -335
-147z"/>
<path d="M7686 9168 c-8 -13 -54 -102 -101 -200 -63 -127 -85 -182 -80 -197 5
-16 57 -46 188 -110 100 -49 312 -152 470 -230 158 -78 299 -141 313 -141 22
0 34 20 119 192 91 183 104 219 87 244 -4 7 -106 60 -227 119 -121 59 -329
161 -463 226 -134 66 -254 119 -267 119 -14 0 -31 -9 -39 -22z m339 -129 c643
-313 653 -319 639 -363 -4 -11 -42 -93 -85 -182 -78 -164 -100 -191 -139 -179
-11 3 -220 105 -465 225 -428 211 -445 220 -445 247 0 25 146 339 172 370 6 7
20 13 32 13 11 0 143 -59 291 -131z"/>
<path d="M7723 9142 c-20 -12 -176 -340 -170 -357 6 -13 370 -202 423 -219 14
-4 24 2 37 26 l19 32 -40 36 c-43 37 -72 86 -72 120 0 35 27 76 60 90 29 12
118 10 151 -4 11 -5 20 4 32 30 10 20 17 38 15 39 -7 7 -404 203 -423 208 -11
4 -25 3 -32 -1z"/>
<path d="M8180 8890 l-19 -37 26 -14 c77 -41 109 -156 57 -204 -39 -36 -113
-45 -176 -20 -13 5 -22 -2 -34 -29 -10 -20 -15 -38 -13 -40 19 -19 435 -213
447 -209 17 7 172 326 172 354 0 16 -46 43 -220 128 l-221 109 -19 -38z"/>
<path d="M7970 8832 c-16 -17 -30 -39 -30 -49 0 -25 40 -87 72 -113 l28 -21
47 95 c26 52 44 98 40 102 -4 4 -34 10 -67 12 -55 4 -61 2 -90 -26z"/>
<path d="M8107 8737 l-45 -92 31 -13 c42 -18 103 -9 133 19 35 33 32 79 -7
124 -58 65 -60 65 -112 -38z"/>
<path d="M10440 9170 c-18 -12 -2 -12 25 0 13 6 15 9 5 9 -8 0 -22 -4 -30 -9z"/>
<path d="M12443 8973 c-289 -130 -323 -148 -323 -169 0 -26 -19 -33 405 158
110 50 215 97 233 105 31 13 47 54 20 52 -7 0 -158 -66 -335 -146z"/>
<path d="M11013 9070 c-17 -7 -23 -18 -23 -40 0 -33 5 -35 44 -20 20 7 26 16
26 40 0 32 -9 35 -47 20z"/>
<path d="M10913 9040 c-17 -7 -23 -18 -23 -40 0 -33 5 -35 44 -20 20 7 26 16
26 40 0 32 -9 35 -47 20z"/>
<path d="M12451 8884 c-179 -79 -327 -146 -329 -148 -2 -3 -2 -13 0 -25 3 -18
33 -7 333 128 275 123 331 151 333 169 2 12 0 22 -5 21 -4 0 -154 -65 -332
-145z"/>
<path d="M10818 9008 c-23 -8 -28 -16 -28 -44 l0 -34 33 13 c25 11 33 20 35
45 4 34 1 36 -40 20z"/>
<path d="M4511 8991 c-8 -5 -10 -14 -7 -20 9 -13 33 -15 40 -2 9 14 -18 31
-33 22z"/>
<path d="M4462 8979 c2 -6 8 -10 13 -10 5 0 11 4 13 10 2 6 -4 11 -13 11 -9 0
-15 -5 -13 -11z"/>
<path d="M10713 8975 c-27 -11 -33 -20 -33 -45 0 -16 2 -30 4 -30 1 0 17 5 35
11 27 9 31 16 31 45 0 19 -1 34 -2 34 -2 -1 -18 -7 -35 -15z"/>
<path d="M4325 8969 c-4 -6 -5 -12 -2 -15 2 -3 7 2 10 11 7 17 1 20 -8 4z"/>
<path d="M4340 8940 c0 -5 5 -10 11 -10 5 0 7 5 4 10 -3 6 -8 10 -11 10 -2 0
-4 -4 -4 -10z"/>
<path d="M4610 8941 c8 -6 15 -16 15 -22 0 -7 7 -15 15 -17 12 -4 12 -2 -1 18
-9 13 -22 26 -30 28 -11 3 -11 1 1 -7z"/>
<path d="M10603 8940 c-17 -7 -23 -18 -23 -40 0 -33 5 -35 44 -20 20 7 26 16
26 40 0 32 -9 35 -47 20z"/>
<path d="M4570 8936 c0 -2 7 -7 16 -10 8 -3 12 -2 9 4 -6 10 -25 14 -25 6z"/>
<path d="M11013 8930 c-18 -7 -23 -17 -23 -44 l0 -34 35 11 c31 9 35 14 35 44
0 35 -8 39 -47 23z"/>
<path d="M12565 8844 c-115 -52 -263 -118 -327 -147 -103 -45 -118 -55 -118
-75 0 -29 -38 -44 352 131 281 125 318 145 318 165 0 12 -3 22 -7 21 -5 0
-102 -43 -218 -95z"/>
<path d="M10913 8900 c-18 -7 -23 -17 -23 -44 l0 -34 35 11 c31 9 35 14 35 44
0 35 -8 39 -47 23z"/>
<path d="M10818 8868 c-23 -8 -28 -16 -28 -44 0 -19 2 -34 4 -34 1 0 17 5 35
11 27 9 31 16 31 45 0 37 -1 37 -42 22z"/>
<path d="M12455 8702 c-305 -137 -330 -150 -333 -174 -3 -29 -34 -41 611 249
46 21 57 30 57 49 0 13 -1 24 -2 24 -2 0 -151 -67 -333 -148z"/>
<path d="M10703 8830 c-17 -7 -23 -18 -23 -41 0 -28 3 -31 23 -25 12 3 28 6
35 6 7 0 12 14 12 35 0 37 -8 41 -47 25z"/>
<path d="M10603 8800 c-18 -7 -23 -17 -23 -44 l0 -34 35 11 c31 9 35 14 35 44
0 35 -8 39 -47 23z"/>
<path d="M11018 8788 c-23 -8 -28 -16 -28 -44 0 -19 2 -34 4 -34 1 0 17 5 35
11 27 9 31 16 31 45 0 37 -1 37 -42 22z"/>
<path d="M4440 8760 c0 -5 -8 -11 -17 -13 -12 -3 -8 -5 9 -6 30 -1 46 14 23
23 -8 3 -15 1 -15 -4z"/>
<path d="M10918 8758 c-23 -8 -28 -16 -28 -44 0 -19 2 -34 4 -34 1 0 17 5 35
11 27 9 31 16 31 45 0 37 -1 37 -42 22z"/>
<path d="M12451 8607 c-283 -129 -335 -155 -338 -174 -1 -13 1 -23 6 -23 8 0
315 135 486 214 39 18 96 43 127 57 50 21 58 28 58 52 0 15 -1 27 -2 26 -2 0
-153 -69 -337 -152z"/>
<path d="M10823 8727 c-29 -9 -33 -14 -33 -45 0 -32 1 -34 28 -27 37 9 44 18
40 52 -3 28 -4 28 -35 20z"/>
<path d="M10708 8688 c-23 -8 -28 -16 -28 -44 0 -19 2 -34 4 -34 1 0 17 5 35
11 27 9 31 16 31 45 0 37 -1 37 -42 22z"/>
<path d="M10608 8658 c-23 -8 -28 -16 -28 -44 0 -32 2 -34 28 -28 40 10 42 12
42 50 0 37 -1 37 -42 22z"/>
<path d="M12447 8515 c-175 -79 -324 -148 -331 -154 -9 -7 -17 -5 -29 9 -16
19 -35 25 -65 21 -7 -1 -15 5 -18 13 -3 8 -12 12 -20 9 -7 -3 -17 2 -20 11 -5
14 -9 14 -22 4 -13 -11 -14 -11 -7 1 5 9 4 12 -3 7 -5 -3 -12 -1 -14 5 -2 7
-9 4 -18 -7 -13 -15 -13 -17 -1 -13 8 3 23 -3 34 -14 11 -11 27 -17 38 -14 10
3 17 2 15 -2 -3 -4 10 -13 27 -20 18 -8 51 -23 73 -34 l42 -20 328 148 c181
81 332 152 336 158 10 16 4 32 -13 34 -8 1 -157 -63 -332 -142z"/>
<path d="M11018 8638 c-23 -8 -28 -16 -28 -44 0 -19 2 -34 4 -34 1 0 17 5 35
11 27 9 31 16 31 45 0 37 -1 37 -42 22z"/>
<path d="M10918 8608 c-23 -8 -28 -16 -28 -44 0 -37 5 -39 44 -24 21 8 26 16
26 45 0 38 -1 38 -42 23z"/>
<path d="M10823 8577 c-30 -9 -33 -14 -33 -48 0 -38 0 -38 28 -27 40 17 44 23
40 55 -3 28 -4 28 -35 20z"/>
<path d="M11623 8557 c0 -8 6 -14 14 -14 9 0 10 4 2 14 -6 7 -12 13 -14 13 -1
0 -2 -6 -2 -13z"/>
<path d="M10703 8540 c-18 -7 -23 -17 -23 -45 0 -19 2 -35 4 -35 1 0 17 5 35
11 27 9 31 16 31 45 0 36 -8 40 -47 24z"/>
<path d="M11662 8536 c2 -1 12 -8 22 -16 11 -8 17 -10 13 -3 -4 6 -1 13 5 16
7 2 0 4 -15 4 -15 0 -27 0 -25 -1z"/>
<path d="M10608 8508 c-23 -8 -28 -16 -28 -44 0 -37 5 -39 44 -24 21 8 26 16
26 45 0 38 -1 38 -42 23z"/>
<path d="M11837 8474 c4 -12 3 -15 -5 -10 -7 4 -12 5 -12 2 0 -3 13 -12 29
-20 26 -14 30 -14 42 2 11 14 11 15 0 5 -16 -14 -41 -6 -41 12 0 8 -4 17 -10
20 -6 4 -7 -1 -3 -11z"/>
<path d="M12050 8449 c0 -5 5 -7 10 -4 6 3 10 8 10 11 0 2 -4 4 -10 4 -5 0
-10 -5 -10 -11z"/>
<path d="M12084 8443 c2 -10 6 -17 10 -16 15 3 16 11 2 22 -12 10 -14 9 -12
-6z"/>
<path d="M10772 8024 c-33 -23 -27 -36 8 -16 16 9 30 20 30 25 0 11 -14 8 -38
-9z"/>
<path d="M10813 7987 c-29 -17 -53 -37 -53 -44 0 -7 21 0 55 20 30 17 55 37
55 44 0 7 -1 13 -2 12 -2 0 -27 -15 -55 -32z"/>
<path d="M10230 7957 c0 -34 62 -55 114 -37 20 6 36 18 36 26 0 11 -4 12 -19
4 -29 -15 -83 -12 -109 6 -19 13 -22 13 -22 1z"/>
<path d="M11083 7840 c-20 -12 -33 -28 -33 -40 0 -20 1 -20 38 3 20 13 38 32
40 41 4 21 -6 20 -45 -4z"/>
<path d="M10500 7806 c0 -24 25 -36 76 -36 34 0 56 5 64 15 17 21 7 29 -18 16
-28 -15 -62 -14 -94 3 -21 11 -28 12 -28 2z"/>
<path d="M10905 7740 c-66 -38 -125 -79 -131 -90 -8 -14 -13 -17 -16 -9 -3 9
-15 6 -44 -12 -21 -13 -57 -34 -79 -45 -41 -22 -64 -48 -53 -59 8 -8 88 33 88
45 0 6 4 9 10 8 5 -2 88 42 184 97 120 69 175 105 176 118 0 9 -3 17 -7 16 -5
0 -62 -31 -128 -69z"/>
<path d="M11083 7768 c-19 -11 -33 -28 -33 -39 0 -19 2 -19 40 3 22 13 40 31
40 41 0 21 -7 21 -47 -5z"/>
<path d="M10903 7664 c-73 -41 -133 -80 -133 -85 0 -6 -4 -8 -9 -5 -5 3 -46
-16 -92 -42 -62 -36 -85 -54 -87 -72 l-4 -23 39 23 c21 13 125 73 231 133 140
80 192 115 192 129 0 10 -1 18 -2 18 -2 0 -63 -34 -135 -76z"/>
<path d="M11090 7699 c-19 -12 -37 -24 -40 -28 -3 -3 -10 -7 -15 -8 -6 -1
-111 -58 -233 -128 -172 -98 -222 -131 -222 -146 0 -24 -23 -35 245 118 110
63 206 122 213 131 6 9 12 13 12 9 0 -4 18 2 40 13 26 13 40 27 40 40 0 24 2
24 -40 -1z"/>
<path d="M11088 7547 c-21 -12 -38 -30 -38 -39 0 -23 1 -22 44 3 21 12 36 29
36 40 0 23 3 23 -42 -4z"/>
<path d="M10950 7467 c-47 -27 -88 -53 -91 -59 -3 -5 -9 -9 -13 -8 -4 2 -66
-30 -137 -70 -96 -54 -129 -78 -129 -92 0 -23 -6 -25 102 36 64 36 85 53 81
65 -3 12 -2 13 4 3 7 -9 40 5 134 59 139 79 142 81 137 101 -2 11 -25 2 -88
-35z"/>
<path d="M7449 7479 l-24 -21 25 16 c37 24 87 20 116 -9 14 -14 30 -25 36 -25
6 0 -6 14 -27 30 -45 36 -92 39 -126 9z"/>
<path d="M11088 7474 c-33 -21 -52 -54 -32 -54 20 0 74 44 74 61 0 23 3 23
-42 -7z"/>
<path d="M7045 7458 l-27 -24 24 -89 c20 -77 26 -90 47 -95 17 -4 27 -15 33
-38 6 -23 14 -32 30 -32 15 0 18 3 10 13 -13 16 -18 49 -10 63 4 6 -5 57 -20
115 -30 115 -41 126 -87 87z m73 -80 c29 -120 29 -120 -10 -116 -32 3 -34 5
-54 84 -12 45 -19 86 -15 91 6 10 42 32 52 33 3 0 15 -42 27 -92z"/>
<path d="M7368 7463 c6 -2 18 -2 25 0 6 3 1 5 -13 5 -14 0 -19 -2 -12 -5z"/>
<path d="M7330 7450 c-9 -6 -10 -10 -3 -10 6 0 15 5 18 10 8 12 4 12 -15 0z"/>
<path d="M7673 7417 c12 -13 24 -22 26 -20 6 4 -30 43 -40 43 -5 0 2 -10 14
-23z"/>
<path d="M10855 7341 c-93 -55 -194 -112 -222 -127 -35 -18 -53 -34 -53 -46 0
-10 3 -18 7 -18 3 0 106 57 229 128 156 88 223 132 224 145 0 9 -3 17 -7 17
-5 0 -84 -45 -178 -99z"/>
<path d="M11083 7399 c-18 -12 -33 -25 -33 -31 0 -5 -4 -7 -10 -3 -5 3 -85
-38 -177 -91 -92 -53 -188 -108 -213 -122 -25 -13 -51 -29 -57 -35 -15 -11
-17 -37 -4 -37 13 0 444 249 452 261 3 6 8 9 11 7 11 -8 78 38 78 54 0 23 -8
22 -47 -3z"/>
<path d="M7301 7394 c0 -11 3 -14 6 -6 3 7 2 16 -1 19 -3 4 -6 -2 -5 -13z"/>
<path d="M7468 7383 c12 -2 30 -2 40 0 9 3 -1 5 -23 4 -22 0 -30 -2 -17 -4z"/>
<path d="M7342 7339 c15 -14 28 -30 28 -37 0 -6 4 -13 9 -17 6 -3 6 7 0 27 -5
18 -9 34 -9 36 0 2 -5 0 -11 -3 -5 -4 -18 -1 -28 7 -9 7 -4 1 11 -13z"/>
<path d="M7571 7366 c2 -2 15 -9 29 -15 24 -11 24 -11 6 3 -16 13 -49 24 -35
12z"/>
<path d="M7673 7333 c-12 -13 -19 -23 -14 -23 10 0 46 39 40 43 -2 2 -14 -7
-26 -20z"/>
<path d="M7616 7294 c-9 -24 -2 -26 12 -4 7 11 8 20 3 20 -5 0 -12 -7 -15 -16z"/>
<path d="M7350 7249 c-12 -9 -12 -10 4 -5 22 7 46 -10 46 -32 0 -14 -1 -14
-12 0 -11 14 -18 14 -48 3 -19 -8 -29 -14 -22 -14 6 -1 12 -8 12 -16 0 -8 5
-15 10 -15 6 0 10 -5 10 -11 0 -8 -5 -7 -15 1 -17 14 -31 8 -20 -9 11 -19 45
-12 71 14 47 47 15 120 -36 84z m35 -78 c-3 -6 -11 -11 -16 -11 -5 0 -4 6 3
14 14 16 24 13 13 -3z"/>
<path d="M7586 7221 c-3 -4 -2 -21 3 -37 4 -16 6 -34 4 -41 -2 -6 3 -10 14 -8
10 2 22 4 28 4 5 1 4 6 -3 13 -7 7 -12 20 -12 30 0 10 -7 18 -17 18 -15 0 -14
2 3 15 17 13 17 14 2 15 -9 0 -19 -4 -22 -9z"/>
<path d="M7150 7149 c0 -5 5 -7 12 -3 8 5 9 2 5 -9 -4 -11 2 -22 15 -31 12 -9
19 -19 15 -22 -3 -4 8 -14 26 -24 17 -9 36 -27 42 -38 5 -12 18 -22 27 -22 10
0 18 -1 18 -2 0 -2 -7 -24 -15 -51 -8 -26 -12 -54 -9 -61 3 -8 1 -17 -5 -21
-6 -3 -11 -12 -11 -20 0 -14 -60 -83 -60 -69 0 5 -5 1 -11 -8 -6 -11 -22 -18
-42 -18 l-32 -1 28 -15 c15 -8 27 -21 27 -29 0 -8 12 -18 27 -21 15 -4 36 -18
47 -31 27 -31 61 -22 52 13 -4 13 -1 24 6 26 17 6 82 -18 86 -31 2 -6 13 -11
25 -11 12 0 30 -12 42 -26 23 -28 62 -25 49 5 -3 9 -7 23 -8 31 0 8 -12 31
-25 50 -19 27 -20 31 -5 19 10 -9 27 -19 38 -23 18 -6 18 -5 2 18 -15 24 -15
26 4 36 28 15 25 40 -4 40 -35 0 -57 -10 -49 -24 4 -7 1 -7 -7 1 -11 10 -20 6
-46 -21 -24 -25 -39 -32 -57 -29 -14 3 -28 0 -31 -6 -11 -17 -43 -13 -50 6 -6
15 8 32 28 33 4 0 6 6 3 14 -9 23 36 46 78 41 21 -3 34 -1 30 4 -3 5 -1 12 4
15 5 3 12 26 15 51 4 24 11 47 17 50 5 4 9 2 9 -2 0 -5 9 -9 20 -10 24 -2 26
10 5 27 -17 14 -21 35 -5 25 6 -3 10 -2 10 3 0 5 14 12 30 16 27 5 43 26 20
26 -5 0 -10 -5 -10 -10 0 -7 -6 -7 -17 -1 -10 5 -33 15 -51 22 -18 6 -37 21
-43 31 -10 18 -8 19 13 12 40 -13 102 -10 135 6 18 8 33 17 33 20 0 3 -26 6
-59 7 -32 0 -85 7 -117 14 -33 7 -63 11 -69 9 -5 -1 -18 -2 -27 -2 -23 1 -13
-23 19 -43 35 -23 16 -39 -35 -30 -30 5 -48 16 -67 41 -14 19 -31 34 -36 34
-6 0 -17 7 -25 15 -18 17 -34 20 -34 4z m273 -276 c-3 -17 -12 -34 -21 -38 -9
-3 -13 -3 -10 1 4 4 3 16 -3 28 -10 21 -10 21 6 1 l17 -20 -4 20 c-2 11 1 25
7 31 13 16 13 15 8 -23z m47 -213 c0 -5 -7 -7 -15 -4 -8 4 -15 8 -15 10 0 2 7
4 15 4 8 0 15 -4 15 -10z"/>
<path d="M7090 7133 c0 -11 3 -14 8 -7 4 6 14 14 22 17 10 4 8 6 -7 6 -16 1
-23 -5 -23 -16z"/>
<path d="M7965 7122 c-11 -9 -53 -54 -94 -100 -40 -45 -79 -82 -85 -82 -7 0
-23 -11 -36 -25 -13 -14 -18 -25 -12 -25 6 0 16 9 22 20 6 11 17 20 25 20 20
0 19 -6 -7 -43 l-22 -32 27 24 c15 14 27 32 27 40 1 9 31 49 69 88 l67 73 29
-30 c34 -36 58 -38 79 -8 22 31 20 45 -9 73 -28 29 -52 31 -80 7z m75 -12 c21
-21 23 -29 14 -54 -5 -13 -13 -9 -45 21 -27 26 -35 40 -26 45 20 13 36 9 57
-12z"/>
<path d="M7145 7104 c13 -14 14 -19 3 -25 -9 -6 -9 -9 -1 -9 6 0 15 5 18 10 7
12 -12 40 -27 40 -5 0 -2 -7 7 -16z"/>
<path d="M7602 6889 c2 -7 14 -16 27 -20 18 -7 22 -6 19 8 -2 9 -14 18 -26 20
-15 2 -22 -1 -20 -8z"/>
<path d="M7565 6880 c3 -5 8 -10 11 -10 2 0 4 5 4 10 0 6 -5 10 -11 10 -5 0
-7 -4 -4 -10z"/>
<path d="M7670 6856 c0 -2 8 -10 18 -17 15 -13 16 -12 3 4 -13 16 -21 21 -21
13z"/>
<path d="M7708 6853 c6 -2 12 -9 12 -15 0 -5 7 -16 15 -24 13 -14 15 -14 15 0
0 18 -27 46 -43 45 -9 0 -8 -2 1 -6z"/>
<path d="M7540 6670 c0 -6 -8 -10 -17 -10 -17 -1 -17 -1 -1 -10 17 -10 48 -4
48 10 0 4 -7 10 -15 14 -8 3 -15 1 -15 -4z"/>
<path d="M5668 6359 c-54 -40 -30 -73 71 -103 71 -21 71 -21 61 13 -4 16 -6
32 -3 34 2 3 -5 8 -16 12 -11 3 -30 19 -41 36 -25 34 -36 35 -72 8z"/>
<path d="M6153 6344 c-18 -18 -33 -35 -33 -38 0 -3 25 -6 55 -6 61 0 70 14 39
58 -19 27 -21 27 -61 -14z"/>
<path d="M5910 6240 c-14 -11 -20 -20 -14 -20 6 0 19 9 29 20 23 25 17 25 -15
0z"/>
<path d="M13650 6141 c-82 -44 -112 -99 -72 -133 32 -29 99 -57 186 -79 48
-12 89 -19 91 -17 3 3 -1 20 -9 39 -7 19 -12 44 -11 56 1 15 -9 27 -37 43 -21
12 -52 41 -68 66 -17 24 -34 44 -38 44 -4 -1 -23 -9 -42 -19z"/>
<path d="M14466 6114 c-21 -25 -53 -53 -72 -62 -19 -8 -34 -19 -34 -23 0 -4
43 -10 95 -14 52 -4 98 -8 102 -9 15 -2 14 73 -2 103 -28 55 -47 56 -89 5z"/>
<path d="M14046 5929 c-21 -16 -46 -29 -55 -29 -14 0 -14 -2 -1 -10 25 -16 37
-11 70 30 17 22 30 40 28 39 -1 0 -21 -14 -42 -30z"/>
<path d="M11199 4690 c-28 -28 -31 -35 -25 -73 4 -23 11 -46 15 -50 10 -10 51
9 51 23 0 19 39 10 50 -11 13 -23 -4 -53 -25 -46 -6 3 -20 -2 -30 -10 -19 -14
-19 -15 15 -44 40 -34 81 -37 125 -10 l30 18 16 -30 16 -30 23 26 c29 33 44
34 64 5 19 -27 5 -58 -27 -58 -29 0 -51 -15 -43 -28 4 -6 31 -25 61 -42 53
-30 55 -31 82 -14 15 10 25 14 21 10 -8 -10 11 -66 23 -66 5 0 12 7 15 15 9
21 41 19 54 -4 11 -22 8 -25 -33 -35 -36 -9 -32 -22 16 -49 35 -20 40 -20 64
-7 14 8 34 26 45 40 17 24 18 28 2 73 -18 54 -78 104 -114 94 -16 -4 -18 -2
-11 11 6 12 0 39 -18 85 -26 64 -32 71 -84 100 -57 32 -57 32 -90 14 -18 -10
-40 -30 -50 -45 l-16 -27 -1 29 c0 37 -33 106 -63 133 -13 13 -43 24 -74 28
-50 6 -54 5 -84 -25z"/>
<path d="M10965 4564 c-42 -23 -55 -42 -55 -84 0 -47 44 -134 80 -160 34 -24
87 -26 119 -4 27 20 33 14 58 -55 17 -47 27 -58 74 -86 l54 -32 36 20 c19 11
47 36 61 56 l26 36 -28 69 c-25 63 -31 72 -84 102 l-57 34 -38 -25 c-22 -13
-41 -30 -44 -37 -2 -7 -8 1 -12 17 -30 119 -118 187 -190 149z m65 -135 c14
-26 -2 -49 -31 -42 -25 7 -32 19 -24 43 8 26 41 26 55 -1z m245 -139 c7 -23
-10 -50 -31 -50 -17 0 -44 28 -44 45 0 7 7 21 16 29 19 19 49 7 59 -24z"/>
<path d="M11433 4240 c-15 -9 -34 -28 -42 -42 -21 -40 10 -112 62 -146 36 -24
41 -25 65 -11 14 7 34 26 45 41 19 26 19 27 1 77 -15 42 -26 56 -60 75 -41 23
-43 23 -71 6z m35 -108 c2 -14 -2 -22 -12 -22 -19 0 -29 17 -22 36 8 22 30 12
34 -14z"/>
<path d="M11420 3843 c-14 -10 -135 -82 -270 -160 -135 -78 -246 -148 -248
-156 -2 -8 7 -17 20 -21 l23 -6 -24 -19 c-26 -20 -24 -51 4 -51 22 0 18 -21
-5 -27 -27 -7 -25 -30 3 -44 74 -38 513 -295 519 -304 5 -6 8 -6 8 2 0 6 -117
78 -260 160 -213 121 -259 152 -257 168 1 11 9 21 17 23 16 3 483 -263 488
-279 2 -5 8 -9 14 -9 27 0 -30 38 -242 160 -127 73 -230 136 -230 141 0 4 9
13 20 19 18 10 50 -6 223 -105 111 -64 207 -123 214 -131 7 -9 14 -11 17 -5 4
5 -24 27 -61 49 -38 22 -132 76 -210 122 -79 45 -141 85 -138 90 2 4 77 49
165 100 88 50 160 94 160 97 0 5 -46 -21 -230 -128 -112 -65 -116 -67 -144
-52 l-28 15 207 119 c114 65 209 119 211 119 3 0 4 -14 2 -32 -2 -19 2 -32 10
-34 7 -1 8 0 2 3 -17 8 -11 19 9 19 11 0 17 -5 14 -10 -3 -5 -1 -6 5 -2 7 4
12 21 12 38 0 27 -3 30 -25 26 -13 -3 -26 -2 -27 2 -2 3 -98 -49 -215 -117
-205 -119 -244 -134 -243 -94 1 20 485 300 515 297 22 -2 41 -12 330 -179 226
-130 219 -125 204 -143 -6 -8 -17 -14 -23 -14 -7 0 -90 45 -185 101 -95 55
-175 98 -178 96 -5 -5 44 -35 214 -132 68 -39 123 -73 123 -77 0 -4 -9 -12
-21 -18 -18 -10 -38 -1 -142 58 -182 104 -204 115 -182 97 11 -9 80 -50 153
-92 116 -66 152 -93 124 -93 -5 0 -17 -7 -28 -15 -15 -12 -11 -12 18 2 32 14
41 15 62 3 14 -7 23 -17 20 -21 -3 -5 1 -6 8 -4 18 7 53 -19 44 -33 -3 -6 -35
-27 -71 -47 -36 -20 -65 -38 -65 -41 0 -3 28 11 63 31 34 20 70 39 80 42 25 8
21 30 -10 47 l-28 14 28 7 c32 8 37 40 7 50 -11 3 -20 10 -20 15 0 4 9 10 20
13 27 7 25 34 -2 48 -78 40 -497 285 -514 300 -25 23 -24 23 -54 2z m10 -117
c0 -2 -7 -6 -15 -10 -8 -3 -15 -1 -15 4 0 6 7 10 15 10 8 0 15 -2 15 -4z
m-438 -259 c15 -12 15 -14 -3 -25 -36 -22 -68 -9 -55 23 7 18 35 19 58 2z
m979 -7 c24 -13 24 -22 -1 -38 -17 -10 -25 -9 -46 5 l-26 16 24 13 c28 16 25
16 49 4z"/>
<path d="M11426 3771 c-3 -5 5 -12 18 -15 13 -3 32 -9 43 -12 15 -6 14 -4 -4
15 -23 22 -48 27 -57 12z"/>
<path d="M11540 3726 c0 -2 9 -6 20 -9 11 -3 18 -1 14 4 -5 9 -34 13 -34 5z"/>
<path d="M11550 3695 c0 -8 4 -15 10 -15 5 0 7 7 4 15 -4 8 -8 15 -10 15 -2 0
-4 -7 -4 -15z"/>
<path d="M11399 3649 c-7 -4 -3 -12 9 -21 20 -14 20 -14 -9 -33 -16 -11 -29
-26 -29 -32 0 -7 -7 -13 -16 -13 -22 0 -14 -44 9 -48 9 -2 17 1 17 7 0 6 -8 8
-17 5 -15 -5 -15 -3 1 10 11 9 22 16 25 16 3 0 7 -23 9 -50 1 -28 -2 -50 -7
-50 -5 0 -11 -9 -14 -21 -3 -11 -15 -23 -26 -26 -20 -5 -20 -6 3 -24 27 -22
51 -25 40 -6 -4 6 3 2 15 -10 27 -29 29 -29 41 2 6 15 17 25 29 25 11 0 27 3
37 7 12 4 15 3 10 -5 -4 -7 -2 -12 3 -12 6 0 11 5 11 11 0 6 7 3 16 -5 19 -20
44 -21 44 -1 0 7 8 19 18 25 15 10 15 10 -4 5 -11 -3 -29 2 -40 11 -10 8 -13
12 -5 8 11 -5 13 -3 8 10 -4 10 -7 27 -7 37 0 20 0 20 -29 -1 -17 -11 -33 -29
-36 -40 -3 -10 -20 -26 -37 -35 -29 -14 -33 -14 -47 1 -9 9 -10 14 -3 10 6 -4
13 -2 13 3 1 6 3 16 4 21 1 6 3 15 4 20 0 6 10 10 21 10 11 0 20 5 20 11 0 5
4 8 9 5 4 -3 7 9 5 28 -3 26 0 35 18 43 l23 10 -22 7 c-27 9 -30 23 -5 29 10
3 6 5 -10 6 -37 1 -36 20 2 27 16 4 34 11 39 18 7 8 -10 11 -60 11 -39 1 -75
-2 -80 -6z"/>
<path d="M11607 3489 c4 -13 8 -18 11 -10 2 7 -1 18 -6 23 -8 8 -9 4 -5 -13z"/>
<path d="M11320 3492 c0 -12 19 -26 26 -19 2 2 -2 10 -11 17 -9 8 -15 8 -15 2z"/>
<path d="M11646 3307 c-88 -50 -161 -99 -164 -107 -3 -12 -2 -12 9 1 8 9 83
56 167 104 129 74 164 96 150 95 -2 0 -75 -42 -162 -93z"/>
<path d="M11833 3342 c-45 -26 -85 -51 -90 -56 -10 -11 -9 -11 95 49 45 26 82
49 82 51 0 6 -1 6 -87 -44z"/>
<path d="M11643 3232 c-45 -26 -85 -51 -90 -56 -10 -11 -9 -11 95 49 45 26 82
49 82 51 0 6 -1 6 -87 -44z"/>
<path d="M11773 3107 c-179 -103 -303 -169 -320 -169 -19 -1 -120 52 -317 166
-158 91 -290 166 -292 166 -2 0 -4 -31 -4 -69 l0 -70 58 -34 c258 -153 535
-307 554 -307 23 0 567 307 601 339 14 14 17 30 15 82 l-3 64 -292 -168z"/>
<path d="M11718 3202 c-64 -37 -120 -71 -125 -76 -10 -11 -14 -13 130 69 99
56 129 76 115 75 -2 0 -56 -31 -120 -68z"/>
<path d="M8546 3158 c-14 -19 -16 -68 -16 -328 l0 -307 23 -21 23 -22 747 0
c734 0 747 0 767 20 19 19 20 33 20 328 0 262 -2 311 -16 330 l-15 22 -759 0
-759 0 -15 -22z m1508 -19 l26 -20 0 -284 c0 -264 -1 -284 -19 -306 l-19 -24
-720 0 c-694 0 -721 1 -741 19 -20 19 -21 27 -21 308 0 275 1 289 20 308 20
20 33 20 734 20 706 0 714 0 740 -21z"/>
<path d="M8599 3113 c-11 -12 -15 -72 -17 -262 -2 -135 -1 -255 3 -268 13 -54
9 -53 381 -53 l344 0 0 60 0 59 -37 6 c-142 23 -233 114 -209 210 16 63 105
126 199 140 l47 7 0 59 0 59 -349 0 c-312 0 -350 -2 -362 -17z"/>
<path d="M9330 3071 l0 -58 48 -7 c64 -8 143 -48 171 -87 82 -110 -5 -235
-181 -264 l-38 -6 0 -59 0 -60 345 0 c332 0 346 1 365 20 19 19 20 33 20 278
0 217 -2 261 -16 280 l-15 22 -350 0 -349 0 0 -59z"/>
<path d="M9203 2964 c-23 -9 -58 -33 -77 -55 -29 -31 -36 -47 -36 -81 0 -35 6
-47 40 -79 25 -24 60 -44 92 -54 93 -27 88 -36 88 135 l0 150 -32 -1 c-18 0
-52 -7 -75 -15z"/>
<path d="M9330 2830 c0 -170 -5 -162 84 -136 61 18 114 60 132 102 12 29 12
39 0 67 -25 62 -115 117 -190 117 l-26 0 0 -150z"/>
<path d="M11508 3154 c-16 -8 -28 -19 -28 -25 0 -6 5 -6 13 1 6 6 21 17 32 25
26 19 17 18 -17 -1z"/>
<path d="M11522 3089 c-29 -17 -51 -33 -49 -36 4 -4 107 57 107 63 0 6 -3 5
-58 -27z"/>
<path d="M13652 2734 c-71 -35 -104 -86 -110 -165 -4 -53 0 -68 31 -132 32
-65 135 -187 158 -187 33 0 146 150 179 239 46 119 -31 247 -160 265 -37 5
-55 2 -98 -20z m82 -15 c-3 -6 -12 -8 -20 -5 -8 3 -13 2 -13 -2 3 -19 -2 -32
-12 -32 -6 0 -8 7 -5 16 3 8 2 12 -4 9 -6 -3 -10 -2 -10 4 0 5 8 11 18 13 36
8 52 6 46 -3z m74 -16 c10 -10 9 -13 -8 -13 -24 0 -26 -15 -3 -24 11 -5 22 -1
30 10 13 17 14 17 17 -6 0 -6 8 -15 16 -20 10 -7 11 -10 3 -10 -7 0 -12 -3
-12 -7 4 -22 -3 -30 -23 -29 -16 1 -22 7 -20 19 4 26 -47 72 -78 70 l-25 -2
25 8 c15 5 31 3 39 -3 12 -9 13 -8 9 5 -7 19 13 21 30 2z m-90 -27 l37 4 -35
-9 c-19 -5 -38 -7 -42 -5 -3 2 -9 0 -13 -6 -6 -10 5 -13 35 -11 9 0 6 -4 -6
-10 -21 -11 -57 -63 -49 -70 2 -3 -4 -10 -13 -16 -15 -9 -18 -7 -20 11 -1 16
1 18 8 6 11 -17 13 -9 4 14 -3 9 -11 13 -17 9 -6 -4 -8 0 -4 10 4 12 1 17 -10
17 -15 0 -15 2 0 18 10 10 15 21 12 24 -3 3 3 11 12 19 17 13 17 13 3 -5 -14
-18 -13 -19 3 -13 11 4 16 3 12 -3 -10 -16 11 -12 25 5 10 12 10 15 -4 15 -17
0 -21 12 -9 24 5 4 14 -1 21 -12 10 -16 22 -20 50 -16z m56 -22 c9 -3 16 -10
16 -16 0 -5 -6 -6 -12 -1 -7 4 -22 9 -32 10 -11 2 -22 6 -25 8 -6 7 34 6 53
-1z m1 -59 c30 -29 31 -45 5 -73 -35 -37 -86 -23 -102 28 -7 21 9 50 35 60 32
13 36 12 62 -15z m118 3 c7 -31 -1 -90 -13 -98 -6 -4 -12 -17 -15 -30 -5 -25
-47 -91 -54 -84 -2 2 4 14 15 25 14 16 15 21 4 17 -19 -6 -51 -68 -44 -87 3
-11 1 -11 -10 -2 -17 14 -31 -1 -22 -24 3 -8 1 -17 -5 -20 -5 -4 -9 -3 -8 2 6
36 -19 73 -49 73 -12 0 -9 -4 8 -13 17 -9 26 -22 27 -42 1 -19 0 -22 -4 -10
-7 25 -22 45 -36 45 -5 0 -3 -8 6 -18 24 -26 21 -36 -3 -12 -12 12 -18 25 -15
30 3 5 -4 12 -15 15 -17 5 -19 9 -9 21 9 11 15 11 25 3 7 -6 19 -9 26 -7 7 3
20 -5 29 -16 10 -12 21 -18 25 -14 4 4 1 14 -5 22 -11 13 -9 15 9 11 15 -3 23
3 30 21 5 13 21 29 35 34 14 5 24 13 23 17 -1 5 3 18 10 30 8 14 9 29 3 45 -7
17 -10 19 -10 6 -1 -24 -27 -23 -27 1 0 13 5 17 16 13 12 -4 12 -2 -3 15 -9
11 -14 23 -10 26 3 4 17 -10 30 -31 17 -26 23 -30 20 -14 -3 12 -1 20 4 16 11
-6 11 4 -1 31 -7 17 -9 17 -9 3 -1 -10 -5 -18 -11 -18 -14 0 -13 13 2 28 17
17 25 15 31 -10z m-295 -17 c9 -26 8 -28 -14 -28 -13 0 -24 3 -24 8 0 5 7 9
15 9 8 0 15 5 15 11 0 5 -4 7 -10 4 -5 -3 -10 1 -10 9 0 26 17 18 28 -13z m35
-45 c12 4 15 -1 13 -20 -2 -14 1 -26 6 -26 5 0 7 -4 4 -8 -3 -5 2 -9 10 -9 10
0 11 4 4 11 -19 19 -10 29 10 11 14 -13 17 -21 9 -26 -6 -4 -11 -18 -11 -33 0
-14 -5 -23 -10 -20 -17 11 -38 72 -31 91 3 10 -3 7 -16 -9 -24 -30 -44 -37
-35 -13 4 9 1 15 -7 15 -10 0 -10 3 -1 12 15 15 16 31 0 22 -7 -4 -8 -3 -4 4
5 9 13 9 26 2 10 -5 25 -7 33 -4z m227 -25 c0 -5 -7 -17 -16 -25 -8 -9 -12
-20 -9 -26 3 -5 -1 -10 -10 -10 -9 0 -14 4 -11 9 12 19 -20 17 -36 -2 -10 -11
-18 -16 -18 -10 0 10 24 34 49 48 9 5 12 4 7 -3 -4 -7 -2 -12 3 -12 6 0 11 7
11 16 0 8 5 12 10 9 6 -3 10 -1 10 4 0 6 2 11 5 11 3 0 5 -4 5 -9z m-230 -41
c0 -5 -4 -10 -10 -10 -5 0 -10 5 -10 10 0 6 5 10 10 10 6 0 10 -4 10 -10z m-7
-41 c3 -12 10 -18 16 -14 6 3 11 2 11 -4 0 -23 -18 -18 -34 10 -9 16 -13 29
-8 29 5 0 12 -9 15 -21z m177 17 c0 -3 -4 -8 -10 -11 -5 -3 -10 -1 -10 4 0 6
5 11 10 11 6 0 10 -2 10 -4z m-20 -42 c0 -8 -5 -12 -10 -9 -6 4 -8 11 -5 16 9
14 15 11 15 -7z"/>
<path d="M13823 2643 c-3 -10 -8 -21 -10 -25 -2 -4 3 -5 11 -2 9 3 14 10 11
14 -3 5 0 10 7 12 9 3 9 6 0 12 -7 4 -15 0 -19 -11z"/>
<path d="M13606 2641 c-7 -11 33 -43 46 -35 4 3 8 12 8 20 0 8 -5 12 -10 9 -6
-4 -7 -12 -4 -18 4 -7 3 -8 -2 -4 -5 5 -9 14 -9 20 0 14 -22 21 -29 8z"/>
<path d="M13660 2380 c0 -5 5 -10 11 -10 5 0 7 5 4 10 -3 6 -8 10 -11 10 -2 0
-4 -4 -4 -10z"/>
<path d="M13595 2510 c-3 -5 1 -10 9 -10 9 0 16 5 16 10 0 6 -4 10 -9 10 -6 0
-13 -4 -16 -10z"/>
<path d="M3720 2616 l0 -33 88 -7 c48 -3 115 -9 150 -13 l63 -6 -3 34 -3 34
-115 12 c-183 19 -180 19 -180 -21z"/>
<path d="M1910 2551 c0 -16 8 -20 43 -23 34 -2 42 -7 42 -23 0 -14 -10 -23
-35 -31 -46 -15 -53 -44 -11 -44 45 0 78 19 92 52 10 25 9 33 -8 56 -16 22
-29 28 -72 30 -45 3 -51 1 -51 -17z"/>
<path d="M3793 2512 c-70 -26 -73 -28 -73 -59 0 -39 6 -40 86 -13 l59 21 66
-21 c87 -26 89 -26 89 13 0 34 -3 35 -140 81 -8 2 -48 -7 -87 -22z"/>
<path d="M1190 2131 l0 -251 178 0 c97 0 193 5 213 10 54 15 82 51 87 112 5
61 -18 99 -72 122 l-31 14 27 10 c48 20 68 48 68 97 0 54 -15 89 -49 112 -22
15 -55 18 -223 21 l-198 4 0 -251z m338 137 c7 -7 12 -24 12 -38 0 -44 -16
-50 -127 -50 l-103 0 0 50 0 50 103 0 c67 0 107 -4 115 -12z m6 -204 c22 -21
20 -61 -3 -74 -11 -5 -65 -10 -120 -10 l-101 0 0 50 0 50 104 0 c82 0 108 -3
120 -16z"/>
<path d="M1779 2130 l-107 -250 67 0 67 0 24 65 24 65 113 0 113 0 10 -27 c6
-16 18 -45 27 -65 l16 -38 64 0 c34 0 63 1 63 3 0 1 -47 113 -103 247 l-104
245 -84 3 -84 3 -106 -251z m229 60 l30 -75 -65 -3 c-36 -2 -67 -1 -69 1 -3 2
10 41 27 86 17 46 35 79 39 74 5 -4 22 -42 38 -83z"/>
<path d="M2300 2130 l0 -250 60 0 60 0 0 202 c0 112 4 198 9 193 4 -6 46 -97
92 -202 l83 -193 103 0 103 0 0 250 0 250 -60 0 -60 0 0 -200 c0 -110 -3 -200
-7 -200 -5 0 -46 89 -93 198 l-85 197 -103 3 -102 3 0 -251z"/>
<path d="M3050 2275 l0 -105 -30 0 c-29 0 -30 -2 -30 -45 0 -43 1 -45 30 -45
l30 0 0 -100 0 -100 153 0 c179 0 236 13 284 62 47 49 63 96 63 188 0 92 -16
139 -63 188 -48 49 -105 62 -284 62 l-153 0 0 -105z m329 -10 c36 -18 51 -60
51 -137 0 -70 -21 -121 -56 -137 -14 -6 -65 -11 -114 -11 l-90 0 0 50 0 50 60
0 60 0 0 45 0 45 -60 0 -60 0 0 55 0 55 90 0 c61 0 101 -5 119 -15z"/>
<path d="M3777 2366 c-158 -44 -232 -207 -159 -347 49 -95 166 -150 289 -135
80 9 129 33 177 87 57 64 75 132 57 214 -15 67 -80 145 -143 170 -57 23 -162
28 -221 11z m170 -113 c46 -22 73 -67 73 -123 0 -87 -60 -140 -158 -140 -154
0 -207 193 -71 262 43 23 111 23 156 1z"/>
<path d="M13923 2212 c15 -15 27 -33 27 -40 0 -7 5 -12 10 -12 6 0 10 5 10 11
0 6 9 24 21 40 16 22 17 29 6 29 -8 0 -20 -7 -28 -16 -11 -14 -13 -14 -21 0
-5 9 -19 16 -30 16 -21 0 -21 -1 5 -28z"/>
<path d="M14021 2226 c-31 -38 23 -79 78 -60 20 7 26 16 26 39 0 28 -2 30 -46
33 -31 2 -50 -2 -58 -12z m83 -15 c8 -13 -20 -33 -41 -29 -10 2 -19 11 -21 21
-3 13 3 17 27 17 16 0 32 -4 35 -9z"/>
<path d="M14140 2210 c0 -19 7 -33 19 -40 45 -24 91 -1 91 46 0 34 -28 31 -32
-3 -2 -20 -9 -29 -25 -31 -20 -3 -23 1 -23 27 0 21 -5 31 -15 31 -10 0 -15
-10 -15 -30z"/>
<path d="M14334 2213 c-37 -51 -38 -50 32 -52 50 -1 64 2 58 11 -23 40 -47 68
-58 68 -7 0 -21 -12 -32 -27z m46 -22 c0 -5 -9 -11 -20 -14 -22 -6 -26 3 -8
21 11 11 28 7 28 -7z"/>
<path d="M14445 2230 c-4 -6 10 -10 35 -10 25 0 39 -4 35 -10 -3 -5 -22 -10
-41 -10 -27 0 -34 -4 -34 -20 0 -23 3 -24 30 -8 16 10 24 10 40 0 27 -17 46
-16 31 1 -8 10 -7 17 1 25 6 6 8 18 5 26 -7 18 -92 23 -102 6z"/>
<path d="M14560 2200 c0 -40 0 -40 39 -40 49 0 66 19 19 21 -27 1 -29 3 -8 6
42 8 47 23 10 24 -28 1 -30 3 -10 6 47 9 45 23 -3 23 l-47 0 0 -40z"/>
<path d="M14710 2200 c0 -22 5 -40 10 -40 6 0 10 7 10 15 0 9 9 15 25 15 16 0
25 -6 25 -16 0 -32 25 -6 28 29 2 28 -1 37 -12 37 -9 0 -16 -7 -16 -15 0 -8
-9 -15 -20 -15 -11 0 -23 7 -26 15 -11 28 -24 15 -24 -25z"/>
<path d="M14820 2200 c0 -40 0 -40 39 -40 49 0 66 20 19 21 -18 0 -26 3 -18 6
43 14 44 16 15 23 l-30 8 27 1 c48 2 42 21 -6 21 l-46 0 0 -40z"/>
<path d="M14925 2231 c-4 -7 9 -11 35 -11 25 0 39 -4 35 -10 -3 -5 -22 -10
-41 -10 -27 0 -34 -4 -34 -20 0 -23 3 -24 30 -8 16 10 24 10 40 0 31 -19 37
-15 36 26 -1 37 -1 37 -48 40 -25 2 -49 -2 -53 -7z"/>
<path d="M15042 2203 c3 -33 7 -38 31 -41 16 -2 36 0 45 4 13 6 8 9 -18 14
-30 6 -31 8 -8 9 40 2 45 21 6 22 -27 1 -29 3 -8 6 48 9 45 23 -4 23 l-47 0 3
-37z"/>
<path d="M8550 1820 c-19 -19 -20 -33 -20 -330 0 -297 1 -311 20 -330 20 -20
33 -20 770 -20 737 0 750 0 770 20 19 19 20 33 20 328 0 262 -2 311 -16 330
l-15 22 -755 0 c-741 0 -754 0 -774 -20z m1505 -25 l25 -24 0 -281 c0 -265 -1
-281 -20 -300 -11 -11 -30 -22 -42 -25 -13 -3 -339 -4 -726 -3 -683 3 -704 4
-718 22 -11 16 -14 74 -14 305 1 292 3 309 40 324 8 3 334 6 723 6 l708 1 24
-25z"/>
<path d="M8599 1773 c-11 -13 -14 -71 -14 -283 0 -212 3 -270 14 -283 12 -15
50 -17 362 -17 l349 0 0 59 0 59 -42 7 c-191 31 -269 184 -147 289 36 31 128
66 172 66 14 0 17 10 17 60 l0 60 -349 0 c-312 0 -350 -2 -362 -17z"/>
<path d="M9330 1731 l0 -59 48 -7 c134 -19 222 -113 198 -209 -16 -63 -104
-125 -203 -141 l-43 -7 0 -59 0 -59 345 0 c332 0 346 1 365 20 19 19 20 33 20
278 0 217 -2 261 -16 280 l-15 22 -350 0 -349 0 0 -59z"/>
<path d="M9230 1631 c-128 -39 -178 -137 -109 -215 31 -36 118 -76 164 -76
l25 0 0 150 0 150 -27 -1 c-16 0 -39 -4 -53 -8z"/>
<path d="M9330 1489 l0 -152 45 6 c81 12 151 60 174 120 28 74 -84 177 -193
177 l-26 0 0 -151z"/>
<path d="M11236 1416 c10 -8 16 -18 11 -22 -4 -4 -7 -2 -7 4 0 15 -37 16 -46
0 -4 -7 -3 -8 4 -4 7 4 12 3 12 -3 0 -5 -6 -12 -12 -15 -7 -3 -1 -4 14 -2 15
1 25 -1 22 -5 -3 -5 -3 -9 0 -9 3 0 10 9 16 19 12 24 3 51 -18 51 -13 0 -12
-3 4 -14z"/>
<path d="M11353 1395 c0 -15 5 -25 13 -25 16 0 19 16 4 25 -6 4 -8 11 -5 16 4
5 2 9 -3 9 -5 0 -9 -11 -9 -25z"/>
<path d="M11215 1351 l20 -10 -20 -1 c-19 -1 -19 -1 2 -19 l21 -18 -49 -42
c-50 -43 -66 -71 -30 -52 10 6 21 7 25 4 3 -3 6 -1 6 5 0 7 5 12 10 12 16 0
12 -84 -6 -118 -10 -21 -23 -32 -37 -32 -19 0 -17 -3 11 -20 18 -11 37 -18 41
-15 5 2 14 -2 21 -10 14 -17 34 -9 26 11 -3 8 -2 14 2 14 4 0 24 4 44 9 22 5
36 5 32 0 -3 -5 1 -9 9 -9 8 0 29 -3 47 -7 26 -5 31 -3 25 7 -5 8 -1 18 11 28
18 14 18 14 -2 8 -12 -4 -28 0 -40 10 -10 8 -14 13 -8 10 7 -3 11 6 10 24 -1
17 -5 30 -9 30 -20 0 -49 -23 -58 -47 -5 -14 -18 -27 -29 -30 -11 -3 -20 -9
-20 -14 0 -13 -28 -11 -36 3 -4 6 -2 14 4 16 6 2 9 9 6 16 -6 14 22 41 42 41
8 0 13 5 12 10 -1 6 -8 9 -14 7 -7 -1 -15 2 -19 8 -3 5 0 7 8 4 10 -3 17 4 21
20 3 13 16 28 28 32 l22 7 -23 18 -23 19 23 1 c21 1 21 2 4 6 -36 9 -40 23 -7
29 17 3 39 16 49 27 16 19 16 20 1 8 -17 -13 -93 -12 -148 3 -21 5 -22 5 -5
-3z"/>
<path d="M4877 1303 c-12 -12 -7 -22 8 -17 8 4 23 3 33 -1 15 -6 15 -8 -6 -25
-28 -23 -14 -35 16 -14 26 18 29 49 6 58 -21 8 -49 8 -57 -1z"/>
<path d="M1794 1275 c-8 -19 3 -35 25 -35 26 0 44 23 29 38 -17 17 -47 15 -54
-3z"/>
<path d="M6278 1271 c-23 -10 -38 -23 -38 -34 0 -16 2 -16 30 -2 16 8 38 15
50 15 12 0 34 -7 50 -15 28 -14 30 -14 30 3 0 15 -29 33 -80 48 -3 1 -22 -5
-42 -15z"/>
<path d="M6474 1275 c-8 -19 3 -35 25 -35 26 0 44 23 29 38 -17 17 -47 15 -54
-3z"/>
<path d="M1200 1215 c0 -51 -3 -65 -15 -65 -8 0 -15 -9 -15 -20 0 -11 7 -20
15 -20 12 0 15 -14 15 -65 l0 -65 88 1 c108 0 149 14 179 58 32 47 32 135 0
182 -30 44 -71 58 -179 58 l-88 1 0 -65z m221 -4 c25 -25 29 -37 29 -81 0 -44
-4 -56 -29 -81 -27 -27 -35 -29 -105 -29 l-76 0 0 45 0 45 45 0 c38 0 45 3 45
20 0 17 -7 20 -45 20 l-45 0 0 45 0 45 76 0 c70 0 78 -2 105 -29z"/>
<path d="M1980 1135 c0 -136 1 -145 19 -145 16 0 19 9 23 76 3 65 7 79 27 95
31 25 85 25 111 -1 16 -16 20 -33 20 -94 0 -65 2 -74 20 -79 19 -5 20 0 20 78
0 74 -3 87 -24 112 -21 24 -31 28 -79 28 -40 0 -61 -5 -76 -19 l-21 -19 0 56
c0 50 -2 57 -20 57 -19 0 -20 -7 -20 -145z"/>
<path d="M2930 1130 c0 -143 1 -150 20 -150 18 0 20 7 20 65 l0 65 100 0 c93
0 100 1 100 20 0 19 -7 20 -100 20 l-100 0 0 45 0 45 100 0 c93 0 100 1 100
20 0 19 -7 20 -120 20 l-120 0 0 -150z"/>
<path d="M3210 1130 c0 -143 1 -150 20 -150 18 0 20 7 20 65 l0 65 74 0 c89 0
130 13 145 46 22 49 4 98 -42 114 -16 5 -72 10 -123 10 l-94 0 0 -150z m221
86 c8 -17 8 -29 0 -45 -11 -19 -20 -21 -96 -21 l-85 0 0 45 0 45 85 0 c80 0
86 -1 96 -24z"/>
<path d="M3500 1260 c0 -18 7 -20 55 -20 l55 0 0 -130 c0 -123 1 -130 20 -130
19 0 20 7 20 130 l0 130 50 0 c43 0 50 3 50 20 0 19 -7 20 -125 20 -118 0
-125 -1 -125 -20z"/>
<path d="M5170 1130 c0 -143 1 -150 20 -150 18 0 20 7 20 65 l0 65 100 0 100
0 0 -65 c0 -58 2 -65 20 -65 19 0 20 7 20 150 0 143 -1 150 -20 150 -18 0 -20
-7 -20 -65 l0 -65 -100 0 -100 0 0 65 c0 58 -2 65 -20 65 -19 0 -20 -7 -20
-150z"/>
<path d="M5530 1266 c0 -15 19 -21 109 -32 43 -5 52 -3 49 7 -3 8 -26 17 -54
21 -27 4 -61 9 -76 12 -20 4 -28 1 -28 -8z"/>
<path d="M5860 1130 c0 -143 1 -150 20 -150 19 0 20 7 20 131 0 71 4 128 8
125 5 -3 44 -61 88 -130 78 -123 80 -125 117 -126 l37 0 0 150 c0 143 -1 150
-20 150 -19 0 -20 -7 -20 -131 0 -71 -4 -128 -8 -125 -5 3 -44 61 -88 130 -78
123 -80 125 -116 126 l-38 0 0 -150z"/>
<path d="M11380 1230 c-13 -8 -12 -10 3 -10 9 0 17 5 17 10 0 12 -1 12 -20 0z"/>
<path d="M4350 1212 c0 -5 -29 -8 -65 -8 -60 1 -67 -1 -96 -31 -27 -26 -32
-39 -32 -78 0 -39 5 -52 31 -78 29 -29 38 -32 92 -32 54 0 63 3 92 32 26 26
31 39 31 77 0 30 -6 53 -17 65 -14 15 -15 24 -6 40 9 18 8 21 -10 21 -11 0
-20 -4 -20 -8z m-9 -51 c19 -15 24 -29 24 -66 0 -57 -28 -85 -84 -85 -48 0
-79 23 -86 64 -7 35 14 90 37 99 30 12 87 6 109 -12z"/>
<path d="M4980 1212 c0 -5 -29 -8 -64 -8 -55 1 -68 -3 -90 -23 -39 -37 -50
-81 -31 -128 20 -50 53 -68 121 -67 45 0 59 5 83 28 39 37 46 80 22 128 -10
21 -17 48 -14 58 4 14 0 20 -11 20 -9 0 -16 -4 -16 -8z m-13 -47 c30 -21 39
-74 19 -113 -17 -34 -33 -42 -81 -42 -52 0 -80 29 -80 85 0 37 5 51 24 66 28
23 88 25 118 4z"/>
<path d="M1573 1195 c-20 -9 -35 -23 -39 -40 -10 -38 0 -40 35 -6 24 24 41 31
69 31 20 0 42 -4 48 -8 15 -10 37 -52 30 -59 -3 -3 -37 -6 -75 -7 -77 -1 -111
-21 -111 -62 0 -57 91 -83 156 -45 27 16 34 17 34 6 0 -8 7 -15 15 -15 23 0
22 162 -2 185 -36 36 -103 45 -160 20z m141 -124 c10 -15 -53 -61 -84 -61 -56
0 -79 27 -48 58 14 14 124 16 132 3z"/>
<path d="M1800 1100 c0 -103 1 -110 20 -110 19 0 20 7 20 110 0 103 -1 110
-20 110 -19 0 -20 -7 -20 -110z"/>
<path d="M2345 1203 c-58 -15 -95 -90 -72 -145 22 -52 49 -70 112 -74 46 -2
59 1 84 22 42 35 56 83 38 126 -8 18 -23 41 -34 50 -20 19 -93 31 -128 21z
m90 -29 c26 -10 48 -62 40 -100 -7 -40 -38 -64 -83 -64 -45 0 -67 13 -82 49
-32 78 43 146 125 115z"/>
<path d="M2624 1204 c-12 -3 -34 -18 -49 -34 -23 -24 -28 -39 -28 -75 0 -39 5
-52 31 -78 29 -29 38 -32 93 -32 56 0 63 3 90 33 34 38 38 63 9 55 -11 -3 -20
-9 -20 -14 0 -4 -10 -17 -22 -29 -45 -42 -129 -16 -144 45 -22 87 92 144 149
75 25 -29 57 -40 57 -20 0 5 -12 23 -27 40 -22 23 -39 31 -73 34 -25 2 -55 2
-66 0z"/>
<path d="M3954 1204 c-12 -3 -34 -18 -49 -34 -23 -24 -28 -39 -28 -75 0 -39 5
-52 31 -78 29 -29 38 -32 93 -32 56 0 63 3 90 33 34 38 37 52 9 52 -11 0 -20
-4 -20 -10 0 -5 -10 -18 -22 -30 -45 -42 -129 -16 -144 45 -22 87 92 144 149
75 25 -29 57 -40 57 -20 0 5 -12 23 -27 40 -22 23 -39 31 -73 34 -25 2 -55 2
-66 0z"/>
<path d="M4590 1203 c-51 -20 -66 -72 -27 -97 12 -8 49 -19 82 -25 69 -13 84
-24 69 -49 -23 -36 -118 -27 -136 13 -14 30 -49 35 -41 6 15 -58 105 -87 176
-57 36 14 38 18 35 53 -3 41 -11 45 -123 69 -27 6 -41 15 -43 28 -5 24 14 36
60 36 30 0 42 -6 60 -30 23 -32 48 -40 48 -16 0 8 -10 27 -23 42 -18 21 -34
27 -73 30 -27 2 -56 1 -64 -3z"/>
<path d="M5544 1196 c-28 -13 -44 -33 -44 -57 0 -17 23 -9 46 16 17 18 33 25
61 25 21 0 43 -4 49 -8 15 -10 37 -52 30 -59 -3 -3 -37 -6 -75 -7 -76 -1 -111
-21 -111 -60 0 -29 11 -43 43 -55 41 -16 68 -14 110 8 29 15 37 16 37 5 0 -8
7 -14 15 -14 12 0 15 16 15 83 0 76 -2 86 -25 107 -30 28 -106 37 -151 16z
m136 -130 c0 -37 -78 -68 -124 -50 -19 7 -21 35 -4 52 18 18 128 16 128 -2z"/>
<path d="M6275 1203 c-58 -15 -95 -90 -72 -145 20 -47 47 -67 98 -73 58 -8
108 17 132 67 22 44 12 90 -26 126 -24 22 -94 36 -132 25z m90 -29 c26 -10 48
-62 40 -100 -7 -41 -38 -64 -85 -64 -47 0 -78 23 -85 64 -7 35 14 90 37 99 19
8 74 8 93 1z"/>
<path d="M6480 1100 c0 -103 1 -110 20 -110 19 0 20 7 20 110 0 103 -1 110
-20 110 -19 0 -20 -7 -20 -110z"/>
<path d="M11166 1192 c-3 -5 1 -9 9 -9 8 0 15 4 15 9 0 4 -4 8 -9 8 -6 0 -12
-4 -15 -8z"/>
<path d="M11400 1196 c0 -2 7 -6 15 -10 8 -3 15 -1 15 4 0 6 -7 10 -15 10 -8
0 -15 -2 -15 -4z"/>
<path d="M1615 941 c-10 -17 4 -31 31 -31 19 0 25 5 22 18 -4 19 -43 29 -53
13z"/>
<path d="M2365 941 c-10 -17 4 -31 31 -31 19 0 25 5 22 18 -4 19 -43 29 -53
13z"/>
<path d="M6297 944 c-17 -17 -5 -34 24 -34 24 0 30 4 27 18 -3 17 -38 29 -51
16z"/>
</g>
</svg>
